<?xml version="1.0" encoding="UTF-8" standalone="no"?><!-- Generator: Gravit.io --><svg xmlns="http://www.w3.org/2000/svg" xmlns:xlink="http://www.w3.org/1999/xlink" style="isolation:isolate" viewBox="0 398 1200 451" width="1200pt" height="451pt"><g><g><g><g><g><path d=" M 0 627 L 0 405 L 600 405 L 1200 405 L 1200 627 L 1200 849 L 600 849 L 0 849 L 0 627 Z " fill="rgb(227,138,35)"/><path d=" M 0 398 L 1200 398 L 1200 596.074 L 1200 849 L 0 849 L 0 398 Z  M 158.3 817.511 C 158.1 817.511 158.2 818.121 158.6 818.832 C 160.2 821.676 158.8 817.511 158.3 817.511 Z  M 156.4 813.956 C 155.5 812.534 154.6 811.417 154.3 811.417 C 153.8 811.417 154.8 813.245 156.3 815.277 C 158 817.511 158.1 816.597 156.4 813.956 Z  M 244.1 812.839 C 246.1 812.534 248.2 811.315 248.9 810.198 C 250.1 808.166 250 808.065 246.4 808.776 C 236.3 810.502 225.4 811.518 221.1 811.112 C 218.6 810.909 213.8 810.401 210.4 809.995 C 203.2 809.284 192.5 806.947 186.7 804.713 C 179.9 802.072 169.7 797.196 170.2 796.688 C 170.4 796.485 178 796.688 187.1 797.196 C 217.8 799.024 262.9 797.907 305.9 794.149 C 312.8 793.641 318.6 792.828 318.9 792.523 C 319.2 792.117 303.9 792.117 284.7 792.32 C 265.6 792.625 250.3 792.422 250.7 792.016 C 251.2 791.609 256 790.187 261.5 788.968 L 271.5 786.734 L 442.5 786.023 C 599.9 785.311 646.3 784.804 694 783.483 C 703.6 783.178 733.8 782.467 761 781.959 C 788.2 781.35 823.9 780.436 840.3 779.928 C 856.6 779.318 872.8 778.912 876.3 778.811 C 886.7 778.709 879.8 777.185 865.2 776.474 C 857.9 776.068 851.1 775.56 850.2 775.357 C 849.3 775.255 837.4 774.443 823.8 773.732 C 810.1 773.021 799 772.107 799 771.802 C 799 771.395 803.2 770.786 808.3 770.38 C 830.7 768.755 834.6 768.348 831 767.739 L 827.5 767.129 L 833 765.301 C 836 764.387 841.8 761.949 845.8 760.019 C 849.8 758.089 853.3 756.565 853.6 756.565 C 854.5 756.565 865.6 749.049 868.2 746.509 C 871.6 743.462 871 742.345 865.7 742.345 C 863.4 742.243 860.2 741.634 858.5 740.923 C 855.8 739.805 857.4 739.5 872.5 738.993 C 889.4 738.485 904.7 736.25 908.5 733.812 C 909.6 733.101 912.3 732.187 914.5 731.781 C 931.8 728.632 969.3 716.646 979.8 710.856 C 980.7 710.348 984.1 708.723 987.3 707.199 C 990.5 705.675 992.9 704.253 992.6 704.05 C 992.3 703.745 989.7 704.66 986.8 706.082 C 973.3 712.583 959.6 717.763 953.9 718.474 C 952 718.677 945.1 720.506 938.5 722.537 C 911.2 730.866 882.9 735.234 841.5 737.266 C 783.7 740.11 722.2 743.056 701.5 743.868 C 693.8 744.173 678.3 744.884 667 745.392 C 655.7 745.9 638.4 746.611 628.5 746.916 C 618.6 747.22 598.8 747.931 584.5 748.439 C 530.2 750.572 431.9 753.01 357.1 754.127 C 318.3 754.737 311.8 754.635 312.2 753.416 C 312.9 751.08 321.2 745.29 330.7 740.313 C 342 734.422 350.1 726.6 351.9 719.693 C 352.7 717.052 353 714.614 352.7 714.208 C 352.3 713.903 348.2 717.661 343.6 722.639 C 339 727.616 333.3 732.695 331.1 734.015 C 328.8 735.234 327 736.047 327 735.844 C 327 735.539 329 731.577 331.4 726.905 C 346.5 698.159 351 660.677 343 630.712 C 341.3 624.211 340.7 626.344 342.1 634.267 C 343.7 643.815 342.7 668.092 340.1 679.875 C 337.1 693.486 334.5 700.901 328 714.411 C 312.1 747.119 284.9 771.903 253.5 782.264 C 239.2 786.937 228.9 788.257 210.3 787.851 C 195.4 787.445 192.1 787.038 181.1 784.093 C 166.3 780.233 154 775.255 144.8 769.466 C 142.8 768.247 139 765.91 136.3 764.285 C 127.9 759.206 117.6 749.76 110.6 740.821 C 107.5 736.758 106.9 735.844 102.8 728.936 C 101.5 726.803 100.1 725.077 99.5 725.077 C 98 725.077 93.8 718.068 94.6 716.849 C 94.9 716.341 94.5 714.716 93.6 713.395 C 90.6 708.723 88.4 704.253 87 699.886 C 86.2 697.245 85.2 695.721 84.4 696.026 C 83.7 696.33 82.9 695.823 82.6 695.01 C 81.9 693.182 78 693.08 78 695.01 C 78 695.721 78.9 697.549 80 698.971 C 81.1 700.393 82 702.222 82 703.136 C 82 704.05 82.4 705.574 82.9 706.59 C 83.4 707.504 84.4 709.84 85 711.668 C 85.7 713.395 86.6 714.919 87.1 714.919 C 88.4 714.919 88.2 713.7 86.5 709.535 C 84.8 705.472 84.5 701.308 85.9 702.222 C 86.4 702.527 87.6 705.168 88.6 708.113 C 89.5 710.957 92.9 718.576 96.1 724.873 C 99.3 731.07 101.5 736.25 101 736.25 C 99.5 736.25 94.2 729.343 91.5 723.655 C 90 720.506 88.5 717.966 88.3 717.966 C 87.2 717.966 78 730.968 78 732.492 C 78 732.898 79.2 733.203 80.8 733.203 C 86.7 733.203 94.7 737.063 104.7 744.681 C 109.8 748.541 125 765.606 125 767.536 C 125 768.043 122.3 768.755 119 769.059 C 109 770.177 106.4 772.919 111.8 776.677 C 115.5 779.217 117.2 779.826 126.4 781.452 C 130.7 782.264 135.1 783.585 136.1 784.6 C 137.4 785.718 138 785.921 138 785.108 C 138 782.772 146.1 785.007 151.8 788.765 C 156.9 792.219 158.3 794.149 155.8 794.149 C 154.9 794.149 155 794.555 156 795.164 C 156.8 795.672 158.8 796.18 160.4 796.18 C 162.1 796.18 167.2 798.212 171.9 800.65 C 180.2 804.916 198.2 811.214 208.5 813.347 C 213.5 814.362 237.4 814.058 244.1 812.839 Z  M 154 809.995 C 154 809.69 153.5 809.182 152.8 808.776 C 152.1 808.369 152 808.471 152.4 809.182 C 153.1 810.401 154 810.807 154 809.995 Z  M 150.4 804.814 C 149.5 803.392 148.6 802.275 148.3 802.275 C 147.8 802.275 148.8 804.103 150.3 806.135 C 152 808.369 152.1 807.455 150.4 804.814 Z  M 148 800.853 C 148 800.548 147.5 800.04 146.8 799.634 C 146.1 799.227 146 799.329 146.4 800.04 C 147.1 801.259 148 801.665 148 800.853 Z  M 143 792.625 C 142.3 791.711 141.5 791.305 141.2 791.609 C 140.9 791.812 141.3 792.727 142 793.641 C 142.7 794.555 143.5 794.961 143.8 794.657 C 144.1 794.453 143.7 793.539 143 792.625 Z  M 223 783.483 C 244.3 781.248 267.9 772.208 285 759.613 C 295.4 751.893 304 743.564 304 741.126 C 304 738.383 302.8 738.891 298.9 742.954 C 293.6 748.642 270.8 765.707 268.5 765.707 C 268.3 765.707 265.5 766.926 262.3 768.348 C 254.5 771.903 253.3 772.411 247.5 774.341 C 226.5 781.248 198.7 781.452 176.8 774.748 C 173 773.63 169.6 772.919 169.3 773.224 C 168.6 773.935 175.4 777.185 182.9 779.826 C 190.3 782.467 209.9 785.21 215 784.397 C 215.8 784.296 219.4 783.788 223 783.483 Z  M 105.1 773.529 C 104 772.411 101 773.224 101 774.646 C 101 775.154 102.2 775.357 103.6 775.052 C 105.3 774.748 105.8 774.24 105.1 773.529 Z  M 234.3 773.224 C 244.3 771.497 258.2 766.723 258.8 764.895 C 259.1 763.98 249 763.676 215 763.879 C 190.7 764.082 170.6 764.488 170.4 764.895 C 169.3 766.621 188.1 772.716 198.5 774.138 C 206.3 775.154 226.3 774.748 234.3 773.224 Z  M 160 768.653 C 160 768.145 159.6 767.739 159 767.739 C 158.5 767.739 158 768.45 158 769.364 C 158 770.177 158.5 770.583 159 770.278 C 159.6 769.973 160 769.262 160 768.653 Z  M 154 766.723 C 154 765.707 147.1 760.628 145.8 760.628 C 144 760.628 145.2 763.676 147.6 765.606 C 150.4 767.84 154 768.45 154 766.723 Z  M 843.3 767.028 C 842.6 766.825 841.4 766.825 840.8 767.028 C 840.1 767.332 840.6 767.536 842 767.536 C 843.4 767.536 843.9 767.332 843.3 767.028 Z  M 853.8 766.012 C 852.8 765.809 851 765.809 849.8 766.012 C 848.5 766.215 849.3 766.418 851.5 766.418 C 853.7 766.52 854.7 766.317 853.8 766.012 Z  M 162.5 764.691 C 162.2 764.184 161.5 763.676 160.9 763.676 C 160.4 763.676 160 764.184 160 764.691 C 160 765.301 160.7 765.707 161.6 765.707 C 162.4 765.707 162.8 765.301 162.5 764.691 Z  M 872 764.691 C 874.3 763.98 874.2 763.879 871 763.879 C 869.1 763.879 866.4 764.285 865 764.691 C 862.7 765.402 862.8 765.504 866 765.504 C 867.9 765.504 870.6 765.098 872 764.691 Z  M 887 762.66 C 887 762.152 886.8 761.644 886.6 761.644 C 886.3 761.644 885.8 762.152 885.5 762.66 C 885.2 763.269 885.4 763.676 885.9 763.676 C 886.5 763.676 887 763.269 887 762.66 Z  M 271.8 759.308 C 273.5 758.292 275 757.378 275 757.276 C 275 757.175 248.2 757.073 215.5 757.073 C 176.3 757.073 156.1 757.378 156.3 758.089 C 157.3 761.035 166 761.543 217 761.339 C 264.2 761.136 268.8 761.035 271.8 759.308 Z  M 899.7 761.035 C 899.4 760.73 898.5 760.628 897.8 760.933 C 897 761.238 897.3 761.543 898.4 761.543 C 899.5 761.644 900.1 761.339 899.7 761.035 Z  M 140 758.902 C 140 757.886 134.8 752.502 133.8 752.502 C 132 752.502 133.2 755.55 135.8 757.48 C 138.6 759.613 140 760.12 140 758.902 Z  M 152.7 758.902 C 152.3 758.597 151.7 758.597 151.3 758.902 C 151 759.308 151.3 759.613 152 759.613 C 152.7 759.613 153 759.308 152.7 758.902 Z  M 930.3 756.87 C 929.6 756.667 928.4 756.667 927.8 756.87 C 927.1 757.175 927.6 757.378 929 757.378 C 930.4 757.378 930.9 757.175 930.3 756.87 Z  M 149.8 754.331 C 151.8 752.299 151.2 751.486 147.9 751.486 C 146.2 751.486 143.5 750.572 141.9 749.353 C 138.6 747.017 124.3 730.359 118.9 722.537 C 113.3 714.411 107.7 702.019 107.2 696.229 C 106.9 693.385 106.1 690.134 105.4 689.017 C 103.4 686.173 103.7 683.633 106.1 682.313 L 108.2 681.195 L 105.9 680.078 C 101.7 677.843 102.4 676.32 107.9 676.32 C 112.7 676.32 115.1 675.101 113 673.78 C 111.6 672.866 113.6 670.225 115.6 670.225 C 116.4 670.225 117 669.819 117 669.209 C 117 668.092 113.4 666.975 110.5 667.28 C 107.1 667.686 105 667.178 105 666.162 C 105 665.654 106.2 665.146 107.6 665.146 C 109.1 665.146 109.9 664.74 109.5 664.029 C 109.1 663.521 107.4 663.115 105.7 663.318 L 102.5 663.623 L 102.7 653.465 C 102.8 646.355 103.4 641.784 104.7 638.229 L 106.6 633.15 L 115.7 632.54 C 120.7 632.134 125.7 631.525 126.9 631.118 C 129.2 630.407 129.8 628.579 127.8 628.579 C 127.1 628.579 124.5 627.157 122.1 625.532 C 116.9 621.875 115.4 621.773 112.3 624.719 C 109.3 627.563 108.6 626.649 110 621.367 C 111.9 614.155 115.6 607.045 120.5 601.356 C 123 598.309 125 594.957 125 593.84 C 125 590.589 140.5 575.861 151.9 568.242 C 161.7 561.64 164.8 560.116 178 555.342 C 185.7 552.498 201.7 549.349 210.2 548.943 C 216.9 548.638 231.7 549.755 234.8 550.873 C 235.5 551.177 232.4 553.311 227.8 555.748 C 215.9 562.046 215.8 562.046 204 573.524 C 193.5 583.682 189.5 589.472 192.3 590.589 C 193.9 591.199 204.2 587.542 208.7 584.901 C 210.6 583.784 212.8 582.869 213.6 582.869 C 214.5 582.869 215 582.158 214.8 580.939 C 214.6 579.517 216.2 577.892 220.5 574.845 C 227.2 570.375 230.7 566.922 229.7 565.906 C 229.3 565.601 227.8 565.805 226.4 566.516 C 222.9 568.141 222 567.023 225.1 564.89 C 226.4 563.875 228.7 561.843 230.2 560.319 C 233.5 556.764 234 556.764 234 560.319 C 234 565.398 235 565.703 241.8 562.351 C 245.9 560.319 250.2 559.1 254.3 558.796 C 259.8 558.389 261.1 558.593 266.5 561.538 C 296.4 577.587 318 607.552 324.5 642.19 C 326.4 652.348 326.5 674.796 324.6 678.351 C 323.8 679.773 323.4 682.211 323.7 684.141 C 325 692.064 314.9 714.614 302.9 730.866 C 293.6 743.36 294.9 744.884 305.4 734.015 C 310.6 728.632 313.6 724.366 316.5 718.271 C 319.8 711.465 321 709.84 323 709.637 C 324.9 709.434 325.5 708.723 325.5 706.691 C 325.5 705.269 326.1 703.339 326.9 702.323 C 328 701.003 328.1 700.19 327.1 698.362 C 326.2 696.635 326.3 693.893 327.5 685.97 C 328.7 677.336 329.3 675.507 331.5 673.78 C 335.3 670.632 336 666.568 335 653.567 C 333.5 635.588 331 626.039 323.1 608.06 C 321.9 605.419 321 602.982 321 602.677 C 321 600.137 306.9 581.549 298.6 573.22 C 284.1 558.593 271.1 550.263 250.5 542.645 C 245.6 540.817 242.1 539.293 242.8 539.191 C 243.4 539.191 244 538.785 244 538.379 C 244 537.058 226.8 533.909 216.7 533.3 C 207.6 532.792 193.8 534.214 183.5 536.754 C 176.2 538.582 161.9 543.255 160.5 544.27 C 160 544.677 156.1 546.708 152 548.943 C 144.1 553.006 137.2 557.78 131.2 563.367 C 127.9 566.414 127.8 566.719 129.9 566.211 L 132.3 565.703 L 130.1 567.938 C 128.2 569.868 127.8 569.969 127 568.649 C 126.1 567.328 125.9 567.328 125 568.649 C 124.5 569.461 124.2 570.782 124.5 571.594 C 124.8 572.305 122.7 575.759 119.7 579.213 C 110.8 589.777 108 594.043 101.6 606.74 C 94.1 621.773 90.3 635.689 89.3 651.941 C 89 657.223 88.4 662.201 88 663.013 C 87.6 663.826 87.6 665.248 88 666.061 C 88.5 666.975 89.3 671.546 90 676.218 C 93.1 699.378 104.6 724.366 119.9 741.329 C 126.6 748.744 126.4 746.103 119.7 737.469 C 116.7 733.711 114 729.952 113.6 729.14 C 112.8 727.413 111.3 724.772 108.8 721.014 C 104.5 714.411 97.8 694.197 95.9 682.414 C 93.2 665.146 94.2 645.136 98.5 629.798 C 101.4 619.843 107.6 604.708 109.6 603.083 C 110.4 602.474 111 601.559 111 601.052 C 111 599.325 118.8 588.761 126 580.736 C 143.6 561.03 166 548.536 193.2 543.153 C 202.2 541.426 225.5 541.934 236.7 544.169 C 276.8 552.092 310 580.635 324.3 619.64 C 330.5 636.502 333 651.129 332.2 665.959 C 331.6 675.914 330 673.273 330 662.404 C 330 644.526 326.3 628.376 318.5 611.717 C 303.2 579.517 277.2 558.186 241 548.232 C 239.1 547.622 232.1 546.607 225.5 545.895 C 204.4 543.559 184.2 546.911 165.2 556.053 C 161.2 557.983 157.7 559.507 157.4 559.507 C 157.1 559.507 154.1 561.437 150.7 563.773 C 126.4 580.432 111.8 600.036 103.1 627.868 C 98.9 641.276 97.6 651.129 98.4 664.639 C 99.7 686.579 102.6 698.768 110.4 714.919 C 116.8 728.225 124.3 738.078 136 748.845 C 143.3 755.346 147.2 756.972 149.8 754.331 Z  M 179.5 753.518 C 179.9 752.909 179 752.502 177.5 752.502 C 176 752.502 175.1 752.909 175.5 753.518 C 175.8 754.127 176.7 754.534 177.5 754.534 C 178.3 754.534 179.2 754.127 179.5 753.518 Z  M 191 753.518 C 191 753.01 189.8 752.502 188.3 752.502 C 186.1 752.502 185.8 752.705 187 753.518 C 189 754.839 191 754.839 191 753.518 Z  M 129.2 749.252 C 128.5 748.541 128 748.439 128 749.049 C 128 750.471 129.2 751.69 129.9 750.979 C 130.1 750.674 129.8 749.861 129.2 749.252 Z  M 286.1 748.744 C 293 745.595 293.5 743.97 287.4 744.681 C 269.6 746.916 241.2 748.541 230 748.033 C 199 746.408 199.4 746.509 174 742.243 C 159 739.805 137.6 738.485 136.7 740.008 C 135.2 742.446 139.3 743.868 147.9 743.868 C 152.9 743.868 162.8 745.087 171.5 746.814 C 191.7 750.572 204.1 751.283 246 751.08 C 279.8 750.877 281.7 750.775 286.1 748.744 Z  M 1134.5 727.413 C 1130.3 718.576 1126.5 710.551 1125.9 709.637 C 1125.4 708.621 1122.8 703.542 1120.1 698.464 C 1117.5 693.283 1114.1 687.189 1112.6 685.055 C 1111.2 682.922 1110 680.789 1110 680.383 C 1110 679.875 1108.2 676.625 1106 673.171 C 1103.8 669.616 1101.7 665.959 1101.3 665.146 C 1100.9 664.334 1098 659.56 1094.8 654.684 C 1091.6 649.707 1089 645.339 1089 644.831 C 1089 644.323 1088.7 643.815 1088.3 643.612 C 1087.8 643.511 1084.8 639.346 1081.6 634.369 C 1076.1 626.141 1075.8 625.328 1076.9 622.687 C 1078 620.046 1077.9 620.046 1076.5 621.976 C 1075.1 623.805 1074.7 623.805 1073.7 622.484 C 1073 621.57 1069.8 617.304 1066.5 612.936 C 1063.2 608.568 1060.1 604.404 1059.5 603.591 C 1058.5 601.966 1052.1 594.652 1041 582.26 C 1037.4 578.298 1033.2 573.524 1031.5 571.594 C 1028.4 567.938 1013.7 554.326 1006 547.825 C 1002.1 544.473 997.3 540.817 983 530.151 C 974.8 523.955 965.3 518.064 953.2 511.563 C 945.5 507.5 945 507.296 945 508.515 C 945 508.922 947.4 510.344 950.2 511.766 C 970.8 521.72 1003.2 545.794 1023 565.906 C 1032.4 575.454 1032.6 575.861 1036.5 598.004 C 1037.3 602.778 1038.2 606.841 1038.5 607.045 C 1039.7 608.264 1038.8 592.011 1037.5 586.932 C 1036.7 583.885 1036 580.939 1036 580.33 C 1036 578.908 1047.8 591.91 1054.5 600.645 C 1057.5 604.607 1063.2 611.819 1067.1 616.898 C 1071.2 622.18 1073.9 626.75 1073.7 627.665 C 1073.4 628.68 1073.8 629.29 1074.7 629.188 C 1076.1 629.087 1086.8 643.511 1089.1 648.386 C 1089.6 649.504 1092.3 653.871 1095 658.036 C 1097.8 662.201 1100.3 666.365 1100.7 667.178 C 1101.1 667.991 1104.3 673.78 1107.9 679.875 C 1115.2 692.47 1124.7 710.348 1128.9 719.49 C 1137.6 738.282 1141.4 745.697 1141.7 744.681 C 1142 743.97 1138.7 736.25 1134.5 727.413 Z  M 921.3 734.523 C 920.6 734.32 919.4 734.32 918.8 734.523 C 918.1 734.828 918.6 735.031 920 735.031 C 921.4 735.031 921.9 734.828 921.3 734.523 Z  M 997.5 701.714 C 997.8 701.206 997.7 700.698 997.1 700.698 C 996.6 700.698 995.8 701.206 995.5 701.714 C 995.2 702.323 995.3 702.73 995.9 702.73 C 996.4 702.73 997.2 702.323 997.5 701.714 Z  M 1006.5 695.823 C 1006.2 695.518 1005.4 695.823 1004.7 696.534 C 1003.8 697.549 1003.9 697.651 1005.3 697.041 C 1006.3 696.737 1006.8 696.127 1006.5 695.823 Z  M 80 687.9 C 80 686.477 79.6 685.563 79 685.97 C 78.5 686.274 78 687.493 78 688.611 C 78 689.626 78.5 690.541 79 690.541 C 79.6 690.541 80 689.322 80 687.9 Z  M 83.7 688.306 C 83.4 687.493 83.1 687.798 83.1 688.915 C 83 690.033 83.3 690.642 83.6 690.236 C 83.9 689.931 84 689.017 83.7 688.306 Z  M 1027.7 682.211 C 1029.5 680.383 1031 678.351 1031 677.64 C 1031 676.929 1031.4 675.507 1032 674.491 C 1034.1 670.733 1038.1 655.293 1039.5 645.745 C 1041.1 635.181 1041.4 618.32 1040.1 614.866 L 1039.3 612.834 L 1038.7 614.866 C 1038.4 615.983 1038.2 621.773 1038.1 627.665 C 1038.1 633.658 1037.6 641.682 1037 645.441 C 1035.2 657.528 1030.1 673.577 1025.9 680.688 C 1022.5 686.274 1023.1 686.782 1027.7 682.211 Z  M 352.4 683.125 C 353 682.313 356.9 681.195 361 680.484 C 375.2 678.148 410 669.311 410 667.991 C 410 666.467 406.2 667.076 376 673.78 C 371.9 674.796 364.2 675.812 359 676.117 C 350 676.828 349.5 676.929 349.2 679.164 C 348.8 681.805 349.5 684.446 350.6 684.446 C 351 684.446 351.8 683.836 352.4 683.125 Z  M 243.6 681.195 C 246.9 677.336 248.7 673.984 249.2 670.124 C 249.6 668.194 250.5 664.842 251.3 662.81 C 252.9 659.153 252.9 659.052 257.4 659.661 C 261.1 660.271 262.1 660.068 262.6 658.645 C 263 657.731 263 656.716 262.8 656.512 C 261.9 655.497 253.1 654.786 250.6 655.395 C 248.5 655.903 248 656.614 248 659.458 C 248 661.286 247.7 663.115 247.4 663.42 C 247 663.826 246.6 665.756 246.4 667.889 C 246.2 669.92 244.7 673.882 243 676.625 C 241.4 679.266 240 682.008 240 682.516 C 240 684.141 241.6 683.532 243.6 681.195 Z  M 401.7 681.805 C 407.2 681.195 408.3 680.586 407.1 678.555 C 406.6 677.64 403.6 677.64 394.3 678.859 C 381.5 680.484 378.7 681.094 379.5 682.313 C 379.9 683.125 392.2 682.821 401.7 681.805 Z  M 333.8 679.062 C 334 677.843 333.5 677.336 332.1 677.336 C 330.9 677.336 330 677.945 330 678.656 C 330 681.805 333.2 682.11 333.8 679.062 Z  M 440.8 677.336 C 448.5 673.679 451.5 673.374 450.7 676.32 C 450.3 678.148 450.7 678.351 454.2 678.351 C 465.9 678.351 526.6 674.695 547.5 672.765 C 564.9 671.139 563 671.952 592 654.278 C 602.2 648.082 617.1 639.143 625.2 634.267 C 633.3 629.493 640.1 625.125 640.4 624.617 C 641.1 623.5 635 624.617 616.5 629.188 C 615.4 629.391 609.3 630.814 603 632.134 C 572.3 638.838 513.2 652.348 507.5 653.973 C 505.9 654.379 501.4 655.395 497.7 656.106 C 490.1 657.528 488.3 658.95 489.9 661.896 C 490.9 663.927 490.4 667.787 488.7 670.022 C 487.1 672.155 480.5 671.546 477.3 668.905 C 472.4 664.842 469.1 663.115 466.5 663.115 C 463.1 663.115 450.8 666.162 449.6 667.28 C 449 667.787 453.3 668.194 459.5 668.194 C 468.2 668.194 470.7 668.498 472.2 669.92 C 475.2 672.663 474.4 674.085 469.4 674.898 C 466.3 675.304 462.7 674.999 458.2 673.78 C 454.5 672.866 450.6 671.85 449.4 671.546 C 448.3 671.343 444.7 672.054 441.4 673.273 C 431.4 676.929 426.6 678.047 424.6 677.336 C 423.1 676.828 424.1 676.117 429.1 673.984 L 435.5 671.241 L 430 671.85 C 418.9 672.968 412.8 675.507 414.5 678.351 C 417 682.516 431.2 681.907 440.8 677.336 Z  M 227.6 676.726 C 232 674.593 232.9 673.78 233.4 670.733 C 233.9 668.194 234.6 667.178 235.9 667.178 C 238.6 667.178 241.2 663.724 240.8 660.372 C 240.6 658.036 240 657.528 237.3 657.223 C 234.6 656.919 234 657.325 233.4 659.458 C 233.1 660.88 233 662.404 233.3 662.81 C 233.6 663.318 231.4 663.724 228.5 663.724 L 223.1 663.826 L 225.6 660.779 C 228.1 657.731 228.3 655.903 226.2 655.192 C 225.5 654.989 225 655.801 225 656.919 C 225 659.661 222.8 659.661 220.5 657.02 C 219.5 655.903 217.9 654.989 216.8 654.989 C 215.8 654.989 215 654.379 215 653.567 C 215 652.449 216.6 652.246 223.3 652.652 C 227.8 652.957 231.9 653.567 232.5 654.075 C 233 654.582 234 654.989 234.8 654.989 C 236 654.989 236 654.684 235 653.465 C 234.3 652.652 233.4 650.418 233.1 648.589 C 232.6 645.948 231.9 645.237 229.6 645.034 C 228 644.831 225.7 644.018 224.6 643.206 C 223.4 642.495 220.2 641.784 217.4 641.682 C 213.4 641.479 211.5 641.987 208.4 644.12 C 206.3 645.644 203.7 646.863 202.8 646.863 C 201.6 646.863 201 647.675 201 649.097 C 201 650.316 199.8 652.652 198.3 654.176 C 195.6 657.02 195.6 657.02 197.9 657.02 C 201.1 657.02 204 655.192 204 653.16 C 204 649.808 207.1 646.964 212.5 645.237 C 218.3 643.307 223.2 644.018 227.5 647.472 C 229.2 648.793 229.3 649.097 228 649.91 C 227.2 650.418 225.8 650.621 225 650.418 C 224.2 650.113 221.3 649.504 218.7 648.996 C 214 648.183 213.8 648.183 209.7 652.043 C 207.5 654.278 205.1 656.005 204.5 656.005 C 203 656.005 198.5 664.232 198.9 666.162 C 199 666.975 199.8 668.397 200.6 669.311 C 201.6 670.428 201.9 671.952 201.4 673.679 C 200.6 676.929 201.6 677.031 204.7 674.085 C 206.8 672.155 207.5 671.952 210.8 672.866 C 216.1 674.288 222.4 672.765 225.9 669.209 C 227.5 667.584 229 666.568 229.4 666.873 C 230.8 668.397 229.8 672.155 227.6 673.679 C 224.5 675.71 217.7 677.234 215.9 676.32 C 215.1 676.015 213.2 675.914 211.5 676.32 L 208.5 676.929 L 211.5 678.656 C 215.3 680.789 220.6 680.078 227.6 676.726 Z  M 125.5 666.264 C 124.9 663.826 124.7 663.724 123.6 665.451 C 122.9 666.365 121.3 667.178 120.1 667.178 C 119 667.178 118 667.686 118 668.194 C 118 668.803 118.5 669.209 119 669.209 C 119.6 669.209 120 669.92 120 670.733 C 120 671.546 120.7 672.257 121.5 672.257 C 122.3 672.257 123.5 673.171 124.2 674.288 C 125.4 676.218 125.5 676.117 125.8 672.663 C 126 670.632 125.8 667.686 125.5 666.264 Z  M 135 670.022 C 135 668.905 134.5 667.076 133.8 665.857 L 132.6 663.623 L 131.9 666.162 C 131.5 667.584 131.2 670.53 131.1 672.765 L 131.1 676.828 L 133 674.39 C 134.1 673.069 135 671.139 135 670.022 Z  M 80.5 673.374 C 80.2 672.765 79.4 672.257 78.9 672.257 C 78.4 672.257 78.5 672.866 79.2 673.679 C 80.6 675.304 81.6 674.999 80.5 673.374 Z  M 187.9 669.616 C 186.1 667.381 185.7 668.498 187.2 671.85 C 188.2 673.984 188.6 674.288 188.8 672.866 C 189 671.952 188.6 670.428 187.9 669.616 Z  M 373.4 670.225 C 375.3 668.295 375.3 668.295 372.9 666.264 C 370.2 664.029 362.5 662.709 357.5 663.724 C 354.3 664.334 354 664.131 354 661.794 C 354 660.372 355.6 655.903 357.5 651.84 C 361.2 643.917 361.6 641.784 359.9 640.057 C 359.4 639.549 358.3 635.181 357.5 630.509 C 354.9 614.155 351.5 604.505 345.7 597.496 C 344.4 595.871 342.8 593.535 342.1 592.214 C 341.4 590.894 340.1 589.98 339.1 590.183 C 338.2 590.386 335.4 588.761 333 586.628 C 330.6 584.596 327.8 582.869 326.8 582.869 C 324.6 582.869 324.8 583.174 331.1 593.738 C 344.7 616.288 349.2 631.423 349.5 656.005 C 349.7 664.639 349.8 672.155 349.9 672.663 C 349.9 673.171 354.6 673.273 360.8 672.866 C 369.4 672.358 371.9 671.749 373.4 670.225 Z  M 610 668.6 C 626.6 667.076 654 663.521 654.5 662.912 C 654.6 662.709 655 659.966 655.4 656.817 L 656 650.926 L 651.9 650.926 C 649.6 650.926 642.7 652.246 636.6 653.871 C 623.6 657.325 617 658.341 614.6 657.427 C 612.7 656.716 613.1 656.411 623 650.723 C 640.9 640.362 647.7 636.299 656.2 630.814 C 661.6 627.36 666.2 624.516 666.5 624.516 C 666.8 624.516 669.4 622.891 672.3 620.961 C 677.6 617.304 680 616.593 680 618.523 C 680 619.132 679.1 624.313 677.9 629.899 C 675.8 640.565 674.1 643.815 670.8 643.815 C 669.8 643.815 667.8 644.933 666.6 646.253 C 665.3 647.472 663.4 648.996 662.3 649.402 C 660.7 650.113 660.8 650.215 663 650.926 C 664.4 651.332 667.7 652.856 670.4 654.379 C 677.1 658.036 682.4 657.833 690.9 653.77 C 704.1 647.472 714.2 633.15 723 608.365 C 727 596.989 727 592.824 723 589.777 C 719.7 587.339 719.3 585.714 721.3 584.088 C 722.3 583.276 723.5 583.479 725.8 584.901 C 730 587.542 730 587.44 730 583.987 C 730 581.65 729 580.127 725.8 577.587 C 717.9 571.188 716 568.953 716 565.906 L 716 563.062 L 714 566.312 C 713 568.141 710.5 572.61 708.5 576.267 C 706.6 579.924 703.4 585.917 701.3 589.777 C 693 605.318 693.4 605.013 677.5 613.85 C 675.3 615.171 667.9 619.437 661 623.5 C 647.2 631.728 647.7 631.423 625.3 644.222 C 616.6 649.3 607.9 654.379 606 655.598 C 604.1 656.817 597.8 660.372 592.1 663.623 C 586.4 666.873 582.3 669.717 582.8 670.124 C 584.1 670.936 586.2 670.733 610 668.6 Z  M 80 666.67 C 80 664.842 79.5 664.131 78 664.131 C 75.5 664.131 75.3 667.889 77.8 668.498 C 78.7 668.803 79.6 669.006 79.8 669.108 C 79.9 669.108 80 668.092 80 666.67 Z  M 445.7 660.982 C 449.2 660.372 452 659.458 452 659.052 C 452 656.309 413.8 647.878 408.4 649.402 C 406.8 649.808 396.2 650.519 384.8 650.824 C 370.4 651.23 363.7 651.84 362.9 652.652 C 360.8 654.887 362.5 655.09 371.1 653.973 C 375.7 653.465 383.3 652.957 388 652.957 C 401.4 653.059 435.1 656.716 438 658.544 C 438.5 658.849 438.7 659.763 438.3 660.575 C 437.7 662.404 437.7 662.404 445.7 660.982 Z  M 669.8 659.864 C 669.1 657.934 664.5 657.731 663 659.458 C 661.9 660.88 662.3 661.083 666 661.083 C 668.9 661.083 670 660.677 669.8 659.864 Z  M 83.8 656.411 C 84 653.567 84 653.567 82.5 655.395 C 80.7 657.833 80.5 660.372 82.3 659.864 C 82.9 659.56 83.6 658.036 83.8 656.411 Z  M 59 658.036 C 59 657.528 56.9 657.02 54.4 657.02 C 51.7 657.02 50.1 657.427 50.5 658.036 C 50.8 658.645 52.9 659.052 55.1 659.052 C 57.2 659.052 59 658.645 59 658.036 Z  M 482.8 651.84 C 489 649.402 478.4 647.777 471 649.91 C 466.8 651.23 459.7 651.434 458 650.418 C 456.2 649.3 463.6 642.089 468.7 640.159 C 474.9 637.721 478.7 638.838 484.5 644.831 C 490.4 650.926 493.1 651.535 492.8 646.659 C 492.5 643.409 492.6 643.307 499.4 640.971 C 510.1 637.314 535 633.556 535 635.588 C 535 636.095 532.4 637.314 529.3 638.127 C 519 641.073 509.5 644.12 508.6 645.034 C 507.3 646.05 508.2 646.05 513.3 644.831 C 515.6 644.323 528.1 641.479 541 638.635 C 583.6 629.188 583.9 629.087 606.5 623.703 C 622.1 619.945 622.5 619.742 622.8 617.101 C 623.2 613.444 619.5 605.623 616.4 603.489 C 613.6 601.661 613.4 601.763 611.2 606.435 C 610.2 608.264 608.5 610.193 607.3 610.803 C 604.9 611.819 604.2 613.342 606 613.342 C 608.3 613.342 613.8 610.397 614.8 608.67 C 616.4 605.826 619 607.654 619 611.717 C 619 616.593 615.9 618.523 607 619.234 L 600 619.742 L 600 615.374 C 600 610.092 602.4 605.927 606.7 603.489 C 610.2 601.661 611 600.137 608.6 600.137 C 605.9 600.137 601.6 602.27 599.1 604.911 C 594 610.092 592.6 610.498 577.8 611.412 C 548.5 613.139 520.3 615.78 519.3 616.796 C 519 616.999 520 618.929 521.4 621.164 C 522.7 623.297 524.2 626.243 524.5 627.868 C 525.2 630.306 525 630.61 522.5 630.61 C 520.7 630.61 518.5 629.29 515.8 626.649 C 512.3 622.992 511.9 622.18 512.2 618.218 C 512.4 614.663 513.1 613.545 515.6 611.819 C 519 609.482 521.4 609.076 555 604.708 C 565.7 603.286 580.7 601.153 588.3 600.137 C 607 597.395 615.9 597.395 619.4 600.239 C 623.1 603.185 626 609.381 626 614.358 C 626 618.015 626.2 618.421 628.5 618.421 C 631.5 618.421 638 615.882 638 614.663 C 638 614.257 636.8 613.241 635.2 612.53 C 632.9 611.514 632.3 611.514 631.4 612.733 C 630.6 613.952 630 613.139 628.6 608.873 C 625 597.09 613.4 591.707 598.8 595.059 C 596.4 595.566 591.4 596.481 587.5 597.09 C 575.6 598.817 555.1 601.966 541.4 604.2 C 526.3 606.537 527 606.537 527 605.318 C 527 604.708 530.3 603.286 534.3 602.067 C 549.9 597.293 552.6 596.277 549.8 596.176 C 546.7 596.074 535.9 598.512 529.3 600.747 C 521.7 603.388 523.2 601.458 533.5 595.566 C 539.3 592.214 554.1 582.565 554.5 581.752 C 554.8 581.346 553.7 580.228 552.1 579.314 C 550.3 578.4 548.9 578.197 548.5 578.806 C 547.1 581.041 530.7 591.707 522.2 595.871 L 512.8 600.341 L 507.7 598.817 C 504.8 597.903 495.5 594.855 487 591.91 C 425.8 570.985 431.8 573.321 428 569.664 C 426.2 567.938 425 565.805 425 564.281 C 425 561.843 425.7 561.64 443.8 557.069 C 484.8 546.911 510.6 541.121 552.5 532.691 C 604.7 522.228 606 522.025 616.3 523.447 C 620.1 523.955 622.8 523.853 624.3 523.142 C 626.3 522.025 649 520.908 649 521.822 C 649 522.127 646.8 524.869 644.1 528.018 C 633.7 540.207 627.1 551.482 624.8 561.335 C 622.9 569.868 622.6 570.172 616.7 571.594 C 612 572.813 609.3 572.712 597.7 571.188 C 585.1 569.563 574.9 569.461 573.3 571.086 C 572.1 572.204 573.5 572.61 583 573.829 C 589.5 574.642 600.4 574.743 617 574.235 C 639.2 573.626 642.6 573.727 653.4 575.657 C 659.9 576.876 665.4 577.791 665.6 577.791 C 665.8 577.791 666 578.502 666 579.314 C 666 580.127 666.8 580.838 667.7 580.838 C 669.7 580.838 673 577.994 673 576.064 C 673 575.251 674.2 574.743 676.1 574.743 C 678.1 574.743 679 574.337 678.7 573.524 C 678.4 572.509 675.7 572.305 668.3 572.509 C 659.1 572.813 647.7 571.086 644.5 568.75 C 644 568.344 641.7 567.43 639.5 566.719 C 637.3 565.906 634.9 564.89 634.3 564.382 C 629.1 560.116 641.2 535.839 653.8 525.174 C 662.7 517.556 673.4 513.493 675.5 516.845 C 675.8 517.454 675.2 517.86 674.1 517.86 C 670.3 517.86 671.1 519.689 675.5 520.908 C 678 521.619 680.5 522.838 681.1 523.549 C 682 524.768 681.4 524.971 677.2 524.971 C 670 524.971 662.2 526.799 657.3 529.745 C 652.4 532.589 643 542.645 643 544.981 C 643 546.607 646 544.27 655.7 535.027 C 661.2 529.643 664.8 528.627 665.7 532.183 C 666.2 534.011 666.8 534.113 671.5 533.605 C 690.2 531.167 704.5 546.403 694.2 557.78 C 692.8 559.304 690.6 560.523 689.3 560.523 C 687 560.523 687 560.523 690 556.256 C 693.3 551.584 693.8 547.927 691.4 544.473 C 689 540.918 687.7 541.731 688.5 546.302 C 689 549.146 688.8 550.365 688 550.365 C 687.3 550.365 687 551.076 687.4 551.99 C 687.7 552.904 687.1 554.834 686 556.459 C 684.5 558.593 683.4 559.202 681.7 558.694 C 673.3 556.561 670.4 546.81 676.2 540.512 C 677.8 538.684 678 538.176 676.8 538.176 C 674.4 538.176 671 542.645 670.3 546.607 C 669.5 551.685 673.4 558.288 679 561.335 C 681.3 562.554 683.8 563.57 684.6 563.57 C 686.7 563.57 686.3 566.109 683.5 569.461 C 682.1 571.188 681 572.915 681 573.524 C 681 574.032 679.9 576.064 678.6 578.095 L 676.2 581.65 L 680.3 579.822 C 682.6 578.806 685.4 577.892 686.5 577.791 C 690.1 577.384 693 577.791 693 578.603 C 693 579.822 685.4 591.402 683.6 592.925 C 681.4 594.754 681.6 596.074 684 596.074 C 685.7 596.074 690.3 590.488 692.3 585.917 C 692.7 585.104 693.9 583.073 695 581.346 C 697 578.197 697.3 577.689 703.5 566.109 C 705.6 562.249 707.7 558.389 708.3 557.678 C 708.8 556.967 711.3 552.904 713.7 548.536 C 716.2 544.27 719.1 539.191 720.1 537.465 C 723.6 531.268 726.3 526.494 728.3 522.533 L 730.4 518.571 L 727.4 516.134 C 719.1 509.023 703.7 505.874 686.4 507.703 C 677.4 508.617 650.5 512.07 642 513.391 C 637.6 514 627.8 515.524 619.8 516.845 C 597.5 520.298 550.3 528.932 535.5 532.183 C 530 533.3 523.5 534.722 521 535.23 C 504.4 538.379 474.6 545.184 439.5 554.022 C 418.6 559.202 419 559.1 419 562.96 C 419 567.836 424.4 573.727 431.6 576.673 C 434.9 577.892 438.4 579.416 439.5 579.822 C 440.6 580.33 455.5 585.307 472.5 590.995 C 489.6 596.684 505 602.27 506.8 603.388 C 510.9 605.927 511.1 610.193 507.5 614.561 C 503.1 619.843 504.3 624.109 511.5 627.868 L 514.5 629.493 L 511.7 629.595 C 508.7 629.595 475.4 616.186 454.5 606.435 C 426.9 593.636 427.8 594.144 428.5 592.214 C 428.8 591.3 429.4 589.269 429.7 587.745 C 430 586.12 430.7 584.901 431.2 584.901 C 432.2 584.901 449.4 591.199 453.5 593.027 C 456.4 594.348 476.9 601.153 481 602.169 C 482.9 602.677 487.4 603.794 490.9 604.708 C 501.6 607.451 501.1 605.927 490 601.864 C 484.2 599.833 478.2 597.598 476.5 596.989 C 474.9 596.379 466.1 593.23 457 589.98 C 447.9 586.729 438.5 583.377 436.1 582.463 C 426.7 579.009 420 581.854 420 589.472 C 420 591.402 419.6 593.027 419.2 593.027 C 416.9 593.027 406.5 589.777 404.7 588.456 C 402.6 587.034 402.6 586.932 404.5 586.932 C 405.6 586.932 408.4 587.643 410.8 588.456 C 417.6 590.894 418.7 588.964 414.5 582.565 L 411.9 578.806 L 417.3 579.416 C 420.7 579.822 423 579.619 423.4 579.009 C 423.7 578.4 421.4 574.845 418.3 570.985 C 412.8 564.484 412.5 564.281 412.2 566.82 L 411.9 569.563 L 408.2 567.43 C 403 564.484 395.1 564.078 385 566.109 C 375.9 568.039 360.4 573.321 359.4 574.845 C 358.5 576.368 360.7 578.4 365.5 580.736 C 370.9 583.377 374 583.377 380.3 581.143 C 384.7 579.517 385.1 579.517 386.6 581.041 C 389.3 583.682 387.6 585.917 383.1 585.917 C 378.5 585.917 374 587.44 374 588.964 C 374 589.573 376.7 589.98 380.4 589.98 C 386.4 589.98 387.2 590.284 391.9 594.043 L 396.9 598.106 L 400.2 596.074 C 404.2 593.636 413 593.129 411.1 595.465 C 409.2 597.7 411.1 598.207 420.6 597.903 C 428.9 597.7 429.3 597.801 431.4 600.341 C 433.1 602.575 435.3 603.489 442.8 605.115 C 452.1 607.146 461.5 611.412 468 616.593 C 469.9 618.015 474.4 620.046 477.9 620.961 C 484.9 622.789 497.3 628.071 500.7 630.712 C 502.9 632.337 502.9 632.439 501 634.166 C 498.7 636.299 492.4 638.635 488.8 638.736 C 485.3 638.736 480 634.166 480 631.017 C 480 628.173 480 628.274 483.6 629.595 C 485.1 630.204 487 630.407 487.8 630.102 C 489.1 629.595 489 629.29 487.6 627.665 C 485.3 625.125 481.2 624.109 479.4 625.633 C 478.6 626.243 477.2 628.376 476.4 630.204 C 474.9 633.353 470.7 636.603 462.6 640.768 C 461 641.581 458.4 643.511 456.9 645.136 C 454.2 647.777 452 648.691 452 647.066 C 452 646.659 453.8 644.526 456 642.292 C 458.2 640.159 459.8 638.229 459.7 638.025 C 459.5 637.924 457.5 638.635 455.1 639.752 C 446 644.222 435 644.526 435 640.26 C 435 638.94 432.9 638.736 421.8 638.635 C 414.5 638.635 405.4 638.025 401.5 637.314 C 394.5 636.095 394.5 636.095 394.7 632.947 C 394.9 631.118 396.1 626.141 397.4 621.773 C 398.7 617.405 400.1 612.53 400.4 610.803 L 401.1 607.756 L 399 611.006 C 396.4 614.968 388.7 637.518 389.5 638.736 C 389.9 639.346 393.2 639.752 397.1 639.752 C 403.3 639.752 404 639.955 404 641.784 C 404 643.714 404.7 643.815 419.9 643.815 C 436.7 643.815 440.9 644.628 441.7 647.878 C 443.1 653.465 471.5 656.208 482.8 651.84 Z  M 249.5 650.926 C 249.8 650.418 249.4 649.91 248.6 649.91 C 247.7 649.91 247 650.418 247 650.926 C 247 651.535 247.4 651.941 247.9 651.941 C 248.5 651.941 249.2 651.535 249.5 650.926 Z  M 261 649.91 C 261 648.589 259.9 648.589 258 649.91 C 256.8 650.723 256.9 650.926 258.8 650.926 C 260 650.926 261 650.519 261 649.91 Z  M 69 644.222 C 69 641.784 67.6 640.971 66.5 642.8 C 65.6 644.222 66.9 648.082 68.1 647.37 C 68.6 646.964 69 645.644 69 644.222 Z  M 274 646.863 C 275.1 646.152 274.7 645.847 272.3 645.847 C 270.6 645.847 268.8 646.355 268.5 646.863 C 267.7 648.183 272 648.183 274 646.863 Z  M 400.1 646.863 C 404.6 644.425 401.5 643.815 383.4 643.815 C 370.1 643.815 365.1 644.12 365.6 644.933 C 366 645.745 369.1 645.847 375.4 645.441 C 381.9 644.933 385.9 645.237 389.5 646.253 C 395.7 648.082 397.6 648.183 400.1 646.863 Z  M 246 645.136 C 245.8 642.292 233.5 629.595 230.9 629.595 C 229.1 629.595 230.1 630.915 237.3 638.229 C 244.2 645.339 246 646.761 246 645.136 Z  M 266.9 642.596 C 269.9 640.666 270.2 640.26 268.5 639.854 C 266.4 639.448 260 642.596 260 644.018 C 260 645.542 263.2 644.831 266.9 642.596 Z  M 256.2 641.073 C 258.3 639.143 258.6 636.705 256.6 636.705 C 254.4 636.705 250.6 640.26 251.4 641.581 C 252.4 643.307 254 643.104 256.2 641.073 Z  M 1066.1 641.073 C 1067.4 639.448 1067.3 639.346 1065.8 640.666 C 1064.8 641.377 1064 642.19 1064 642.393 C 1064 643.206 1064.8 642.698 1066.1 641.073 Z  M 250.8 635.384 C 251.2 633.455 250.2 633.251 248.1 634.572 C 246.5 635.588 247.6 638.025 249.3 637.416 C 250 637.213 250.6 636.299 250.8 635.384 Z  M 86 631.017 C 86 630.204 85.6 629.595 85 629.595 C 84.5 629.595 84 630.509 84 631.728 C 84 632.845 84.5 633.455 85 633.15 C 85.6 632.845 86 631.829 86 631.017 Z  M 76.8 629.696 C 79.1 627.766 79.7 625.532 78 625.532 C 76.7 625.532 73 629.29 73 630.61 C 73 632.134 74.5 631.829 76.8 629.696 Z  M 223.5 629.595 C 223.9 628.985 222.9 628.579 221.3 628.68 C 218.8 628.68 218.7 628.782 220.5 629.595 C 221.6 630.102 222.6 630.509 222.7 630.509 C 222.8 630.61 223.2 630.204 223.5 629.595 Z  M 155.2 626.039 C 165.3 624.109 176.7 621.773 180.5 620.859 C 187.6 619.234 204 611.92 204 610.397 C 204 609.99 199.8 610.701 194.8 612.022 C 175.5 616.898 138.2 624.516 133.5 624.516 L 128.7 624.516 L 131 627.055 C 132.3 628.477 134.1 629.595 135.1 629.595 C 136.1 629.595 145.1 627.969 155.2 626.039 Z  M 467.4 623.5 C 465.7 621.773 432 611.717 432 613.038 C 432 613.85 439.4 616.593 452 620.554 C 464.7 624.414 469.2 625.328 467.4 623.5 Z  M 1081.3 614.155 C 1082.6 611.209 1084.2 607.146 1084.9 605.216 C 1085.6 603.286 1086.6 600.747 1087.1 599.63 C 1088.6 595.973 1092.8 578.502 1093.9 570.985 C 1095 563.671 1095.6 532.284 1094.6 531.37 C 1094.4 531.065 1093.7 531.167 1093.1 531.472 C 1092.5 531.878 1092.3 537.16 1092.7 546.099 C 1093.1 556.256 1092.8 562.757 1091.6 570.172 C 1089.8 581.854 1086.4 597.7 1085.1 600.645 C 1084.6 601.763 1083.6 604.505 1082.9 606.74 C 1082.2 608.975 1080.9 612.327 1079.8 614.155 C 1078 617.405 1077.5 619.437 1078.5 619.437 C 1078.7 619.437 1080 616.999 1081.3 614.155 Z  M 489.5 612.53 C 488.4 611.514 479.7 608.06 460 600.645 C 453.1 598.106 446.6 595.566 445.5 595.059 C 444.4 594.652 442.2 593.941 440.5 593.535 C 427.9 590.894 471.3 608.771 486.5 612.631 C 489.8 613.444 490.5 613.444 489.5 612.53 Z  M 668.2 608.06 C 671.9 606.334 675.7 604.099 676.6 603.083 C 678.3 601.255 678.2 601.153 674.9 601.763 C 669 602.982 651.7 611.006 652.5 612.327 C 653.3 613.545 660.8 611.514 668.2 608.06 Z  M 1056.7 611.108 C 1056.4 610.295 1056.1 610.6 1056.1 611.717 C 1056 612.834 1056.3 613.444 1056.6 613.038 C 1056.9 612.733 1057 611.819 1056.7 611.108 Z  M 448.6 609.787 C 446.2 607.959 438.8 606.841 435.3 607.756 C 432.8 608.467 433.1 608.67 438.5 609.787 C 441.8 610.498 445.9 611.108 447.5 611.108 C 450.3 611.209 450.4 611.108 448.6 609.787 Z  M 426.5 609.279 C 426.8 608.771 426.3 608.264 425.3 608.264 C 424.3 608.264 422.5 607.959 421.3 607.654 C 420 607.248 419 607.451 419 608.06 C 419 609.889 425.5 611.006 426.5 609.279 Z  M 651.3 606.13 C 655.1 604.505 660.3 601.661 662.9 599.63 C 667.4 596.379 673 589.269 673 586.932 C 673 585.206 671.1 585.815 670 587.948 C 668.6 590.488 652.1 603.591 651.2 602.778 C 650.2 601.661 655.2 593.23 659.8 588.355 C 662.1 585.815 663.8 583.276 663.4 582.666 C 662.3 580.939 651.8 582.26 647.2 584.698 L 643 586.831 L 642 584.799 C 641.2 583.276 641.2 582.361 642 581.346 C 642.8 580.432 642.8 579.822 642 579.314 C 640.3 578.197 637.5 579.72 635.2 582.869 C 632.7 586.221 629 586.932 626.9 584.291 C 625.6 582.666 625.2 582.768 618.6 585.206 L 614.8 586.628 L 621.1 593.535 C 624.6 597.395 630.1 602.677 633.3 605.419 C 639.9 610.905 639.7 610.905 651.3 606.13 Z  M 334 606.943 C 334 606.13 333.1 604.708 332 603.693 C 329.8 601.661 329.3 603.083 331.2 606.232 C 332.7 608.568 334 608.873 334 606.943 Z  M 691.8 601.763 C 692.1 599.325 691.8 599.02 689.8 599.325 C 687.2 599.63 686.1 602.982 688.2 604.302 C 690.2 605.623 691.5 604.81 691.8 601.763 Z  M 430 603.286 C 430 601.966 427.4 601.153 423.4 601.153 C 420.1 601.153 418.8 602.575 421.3 603.489 C 423.4 604.404 430 604.2 430 603.286 Z  M 154.5 600.137 C 154.8 599.528 154 599.122 152.6 599.122 C 151.2 599.122 149.8 599.63 149.5 600.137 C 149.2 600.747 150 601.153 151.4 601.153 C 152.8 601.153 154.2 600.747 154.5 600.137 Z  M 160 600.239 C 160 599.02 158 597.7 157.3 598.411 C 156.6 599.122 157.9 601.153 159.1 601.153 C 159.6 601.153 160 600.747 160 600.239 Z  M 177 597.395 C 182.8 595.871 188 592.621 186.7 591.402 C 186.3 590.995 185.4 591.199 184.8 591.808 C 184.1 592.519 182.5 593.027 181.1 593.027 C 177.4 593.027 165.7 597.395 165.2 598.817 C 164.8 600.239 167.9 599.934 177 597.395 Z  M 681 592.316 C 686.2 584.088 687 581.854 684.6 581.854 C 683.5 581.854 677 591.097 677 592.722 C 677 593.027 676.1 594.449 675 596.074 C 673.2 598.614 673.2 600.137 675.1 600.137 C 675.6 600.137 678.2 596.582 681 592.316 Z  M 327.8 594.855 C 327.5 594.144 326.5 593.332 325.4 593.129 C 323.8 592.824 323.7 593.027 324.9 594.449 C 326.5 596.379 328.3 596.582 327.8 594.855 Z  M 579.1 594.957 C 584.1 593.23 585.3 591.605 581 592.418 C 579.1 592.722 575.8 593.332 573.8 593.636 C 571.7 594.043 570 594.754 570 595.16 C 570 596.481 575.1 596.277 579.1 594.957 Z  M 1061.1 578.908 C 1061.1 567.531 1059.9 555.952 1058.5 554.631 C 1057.3 553.311 1056.9 557.983 1057.9 562.554 C 1058.5 565.398 1059 574.235 1059.1 582.158 C 1059.1 592.621 1059.4 595.871 1060.1 594.144 C 1060.6 592.722 1061.1 585.917 1061.1 578.908 Z  M 152.5 592.113 C 152.2 591.503 151.4 590.995 150.8 590.995 C 150.2 590.995 150.2 591.605 151 592.519 C 152.4 594.246 153.6 593.84 152.5 592.113 Z  M 184.5 586.628 C 185.3 585.002 185.8 583.377 185.6 583.174 C 185.1 582.666 180 588.862 180 589.98 C 180 591.91 183 589.675 184.5 586.628 Z  M 322.6 585.612 C 321.5 581.143 315.5 574.439 303.1 563.875 C 291.1 553.717 287.3 551.076 274.2 543.559 C 268.3 540.207 255.3 535.535 254.4 536.449 C 254.1 536.754 258.3 539.191 263.7 541.934 C 290.6 555.647 297.7 561.335 319.1 586.323 C 322.4 590.183 323.7 589.98 322.6 585.612 Z  M 10.1 582.361 C 12 581.549 12.8 580.939 12 580.939 C 10.6 580.939 4.8 583.784 6.1 583.885 C 6.5 583.885 8.3 583.174 10.1 582.361 Z  M 193 577.994 C 193 576.47 193.7 574.235 194.5 573.016 C 196.7 569.766 194.9 569.461 191.9 572.509 C 189.7 574.845 189.4 575.657 190.2 578.603 C 191.2 582.463 193 582.057 193 577.994 Z  M 19.5 578.705 C 21.7 577.689 22.4 577.08 21 577.384 C 17.2 578.4 14 579.72 14 580.33 C 14 581.143 15.3 580.838 19.5 578.705 Z  M 225.5 579.416 C 229.5 577.689 230.6 574.134 226.8 575.353 C 224.7 575.962 219 579.822 219 580.533 C 219 581.346 222.4 580.736 225.5 579.416 Z  M 255 579.822 C 255 579.314 254.6 578.806 254.1 578.806 C 253.5 578.806 252.8 579.314 252.5 579.822 C 252.2 580.432 252.6 580.838 253.4 580.838 C 254.3 580.838 255 580.432 255 579.822 Z  M 25.7 576.064 C 25.3 575.759 24.7 575.759 24.3 576.064 C 24 576.47 24.3 576.775 25 576.775 C 25.7 576.775 26 576.47 25.7 576.064 Z  M 33.5 573.727 C 34.2 572.509 33.3 572.509 30.5 573.727 C 28.6 574.54 28.6 574.642 30.7 574.642 C 31.9 574.743 33.2 574.337 33.5 573.727 Z  M 240.4 574.134 C 242.6 573.22 242.4 571.696 240.1 571.696 C 238 571.696 236.7 573.016 237.7 574.134 C 238.5 574.845 238.5 574.845 240.4 574.134 Z  M 736.4 568.141 C 741 557.577 746.1 540.715 746.3 535.535 C 746.5 529.339 743.9 524.666 739.8 524.158 C 736.5 523.752 737.4 522.431 724 547.825 C 721.6 552.295 719.1 556.866 718.3 557.983 C 716.7 560.421 716.6 562.554 718.2 562.554 C 718.8 562.554 721.9 565.093 725.1 568.141 C 728.3 571.188 731.6 573.727 732.4 573.727 C 733.4 573.727 735 571.493 736.4 568.141 Z  M 37.7 572.102 C 37.4 571.798 36.5 571.696 35.8 572.001 C 35 572.305 35.3 572.61 36.4 572.61 C 37.5 572.712 38.1 572.407 37.7 572.102 Z  M 235 571.696 C 235 571.188 234.8 570.68 234.6 570.68 C 234.3 570.68 233.8 571.188 233.5 571.696 C 233.2 572.305 233.4 572.712 233.9 572.712 C 234.5 572.712 235 572.305 235 571.696 Z  M 190.8 566.516 C 191 561.234 189.8 557.475 187.8 557.475 C 186.5 557.475 187.4 566.516 189 569.664 C 189.6 570.782 190.2 571.696 190.3 571.696 C 190.5 571.696 190.7 569.36 190.8 566.516 Z  M 55.2 566.516 C 62 564.179 67.7 562.148 68 561.843 C 68.6 561.132 66.4 561.741 52.3 566.312 C 41.9 569.664 39.4 570.68 42 570.68 C 42.5 570.68 48.5 568.852 55.2 566.516 Z  M 258.1 568.649 C 261.6 567.43 264.9 566.109 265.4 565.601 C 266.9 564.078 264.5 564.382 260.3 566.109 C 258.4 566.922 255.8 567.633 254.6 567.633 C 253.5 567.633 251.6 568.344 250.6 569.157 C 247.8 571.391 250.3 571.188 258.1 568.649 Z  M 206.9 562.96 C 209 560.218 209.7 557.475 208.2 557.475 C 207.1 557.475 201 563.57 201 564.687 C 201 566.617 205 565.5 206.9 562.96 Z  M 436.7 564.89 C 436.3 564.586 435.7 564.586 435.3 564.89 C 435 565.297 435.3 565.601 436 565.601 C 436.7 565.601 437 565.297 436.7 564.89 Z  M 257.5 562.554 C 257.8 562.046 257.6 561.538 257.1 561.538 C 256.5 561.538 256 562.046 256 562.554 C 256 563.164 256.2 563.57 256.4 563.57 C 256.7 563.57 257.2 563.164 257.5 562.554 Z  M 121.5 561.538 C 121.8 561.03 121.6 560.523 121.1 560.523 C 120.5 560.523 120 561.03 120 561.538 C 120 562.148 120.2 562.554 120.4 562.554 C 120.7 562.554 121.2 562.148 121.5 561.538 Z  M 74.5 560.523 C 74.8 560.015 76.3 559.405 77.8 559.405 C 79.8 559.304 80 559.1 78.5 558.796 C 77.4 558.593 74.7 559.1 72.5 559.913 C 69 561.234 68.8 561.437 71.2 561.437 C 72.7 561.538 74.2 561.132 74.5 560.523 Z  M 220 553.412 C 220 552.904 218.6 552.6 217 552.701 C 214 552.904 212.2 555.342 213.5 557.475 C 214.2 558.593 220 554.936 220 553.412 Z  M 95.9 554.428 C 101.6 552.803 106.5 551.177 106.9 550.771 C 107.8 549.755 102.3 551.076 89 555.241 C 79 558.389 84.2 557.78 95.9 554.428 Z  M 132.6 555.037 C 132.9 554.225 133.9 553.311 134.8 553.006 C 135.7 552.701 138.8 551.076 141.5 549.349 C 153 542.239 159.8 539.395 170 537.16 C 175.8 535.941 181.4 534.519 182.5 534.113 C 184.2 533.402 184.1 533.198 181.5 533.097 C 179.1 532.995 179.8 532.589 184.7 531.065 C 192.4 528.729 208.8 527.002 215.8 527.713 C 221.4 528.323 222.5 527.205 218.7 524.768 C 216.2 523.041 208.2 523.041 192.5 524.971 C 180.3 526.494 169.4 529.846 157.6 535.738 C 152.7 538.176 146.9 540.512 144.8 540.817 C 141.9 541.325 141.2 541.832 142 542.747 C 142.8 543.762 142.3 544.575 140.1 546.2 C 138.5 547.419 136.8 548.333 136.2 548.333 C 134.3 548.333 130 552.6 130 554.53 C 130 556.764 131.8 557.17 132.6 555.037 Z  M 307.2 554.326 C 310.2 553.107 314.6 552.193 317.3 552.295 C 322.9 552.396 322.7 551.381 316.5 548.435 C 311.1 545.895 307.8 545.591 308.6 547.825 C 309.4 549.755 309.7 549.857 298.3 546.708 C 284.7 542.95 284 542.848 284 544.067 C 284 545.184 299.7 556.459 301.2 556.459 C 301.6 556.459 304.3 555.545 307.2 554.326 Z  M 1017 548.13 C 1009.6 538.48 996.3 527.409 981 518.165 C 972.2 512.883 951.3 502.319 942.5 498.662 C 939.8 497.545 933.7 495.006 929 492.974 C 910.6 484.95 876.3 473.573 854 468.088 C 827.6 461.587 805.7 456.914 801.1 456.914 C 799.9 456.914 799 456.61 799 456.102 C 799 455.695 801.1 455.492 803.8 455.695 C 807 455.899 808 455.695 807 455.086 C 806.2 454.578 799 453.766 791 453.359 C 783 453.055 769.8 452.039 761.5 451.226 C 744.8 449.702 676 449.195 676 450.718 C 676 452.343 683.8 452.953 720 453.867 C 774.5 455.289 810.8 460.063 856.5 472.151 C 879.2 478.144 919.5 491.552 923.5 494.396 C 924.1 494.802 926.8 496.021 929.5 497.037 C 935.7 499.272 967.1 514.915 972.5 518.368 C 974.7 519.79 977.2 521.212 978 521.619 C 979.3 522.228 993.7 531.776 1002.4 537.769 C 1004.1 538.988 1008.9 542.95 1013 546.607 C 1017.1 550.365 1020.6 553.311 1020.8 553.412 C 1020.9 553.412 1019.2 550.974 1017 548.13 Z  M 497.5 551.381 C 498.3 550.06 496 550.06 494 551.381 C 492.8 552.193 492.9 552.396 494.7 552.396 C 495.9 552.396 497.2 551.99 497.5 551.381 Z  M 115.2 549.248 C 134.3 544.473 138.2 543.356 136 543.356 C 133.4 543.255 110.1 548.943 109.2 549.857 C 108.4 550.67 110.6 550.466 115.2 549.248 Z  M 509.7 549.349 C 512.3 548.841 522.2 546.708 531.5 544.778 C 540.9 542.848 551 540.715 554 540.106 C 562.3 538.379 564.3 537.668 564.8 536.144 C 565.1 535.433 564.8 535.128 564.3 535.433 C 563.8 535.738 560.7 536.449 557.4 537.058 C 537.8 540.41 501 548.841 501 549.959 C 501 550.67 504.6 550.466 509.7 549.349 Z  M 330.9 546.302 C 333.8 545.286 336.5 544.067 336.8 543.762 C 337.7 542.848 334.5 543.153 331.2 544.372 C 328.6 545.286 326.4 544.88 316.3 541.426 C 298.4 535.332 290.4 533.706 291.2 536.347 C 291.5 537.058 293.2 537.973 295.1 538.48 C 306.9 541.325 315.1 543.864 319 545.895 C 324.5 548.74 324.3 548.74 330.9 546.302 Z  M 279.5 538.176 C 279.5 537.16 277.4 535.941 273.5 534.824 C 270.2 533.808 264.6 531.878 261 530.557 C 253.8 528.018 241.4 524.971 238.1 524.971 C 233.1 524.971 236.8 526.901 246.8 529.542 C 256.7 532.081 265 535.128 272.5 538.785 C 276.1 540.512 279.5 540.207 279.5 538.176 Z  M 287.5 537.16 C 287.2 536.652 286.3 536.449 285.5 536.855 C 283.4 537.566 283.6 538.176 286.1 538.176 C 287.2 538.176 287.9 537.769 287.5 537.16 Z  M 368.5 536.246 C 368.8 535.738 368.6 535.027 368.1 534.722 C 366.9 533.909 364 535.027 364 536.246 C 364 537.465 367.7 537.465 368.5 536.246 Z  M 228 524.971 C 228 524.463 227.6 523.955 227 523.955 C 226.5 523.955 226 524.463 226 524.971 C 226 525.58 226.5 525.986 227 525.986 C 227.6 525.986 228 525.58 228 524.971 Z  M 414.5 522.634 C 415.2 522.025 414.2 521.822 411.6 522.228 C 409.4 522.634 407.2 523.345 406.6 523.955 C 405.8 524.869 406.6 524.971 409.5 524.463 C 411.7 524.057 414 523.244 414.5 522.634 Z  M 432.5 518.978 C 436.4 517.759 442 516.032 445 515.219 C 448 514.407 453.7 512.782 457.5 511.766 C 472.1 507.703 476.7 506.484 482 504.859 C 485 504.046 489.3 502.929 491.5 502.522 C 493.7 502.116 502.3 500.084 510.5 498.053 C 518.8 496.021 527.1 493.888 529 493.482 C 530.9 493.076 537.7 491.552 544 490.13 C 579.4 482.004 625.5 473.471 669 466.97 C 680.3 465.345 689.8 463.618 690.2 463.212 C 692.1 461.282 684.3 456.914 678.8 456.914 C 676.1 456.914 675.8 457.219 676.4 459.454 C 677.1 462.095 676.2 462.603 671.6 462.095 C 670.5 461.993 668.2 462.603 666.6 463.415 C 664.9 464.228 658.1 465.65 651.5 466.564 C 627.4 469.815 595.1 475.706 576.5 479.972 C 570.5 481.394 563.7 482.918 561.5 483.324 C 557.9 484.035 553.1 485.051 543 487.387 C 541.1 487.794 527.8 491.247 513.5 495.006 C 499.2 498.764 485.9 502.218 484 502.624 C 482.1 503.132 478 504.148 475 504.96 C 465.1 507.804 446.6 512.985 441.5 514.305 C 438.8 515.118 433.8 516.438 430.5 517.352 C 427.2 518.368 423.5 519.282 422.2 519.587 C 421 519.892 419.7 520.603 419.3 521.111 C 418.5 522.533 423.9 521.619 432.5 518.978 Z  M 883.6 506.179 C 882.5 505.366 880.5 504.655 879.1 504.655 C 876.7 504.655 876.7 504.757 878.6 506.179 C 879.6 506.992 881.6 507.601 883 507.601 C 885.4 507.601 885.4 507.601 883.6 506.179 Z  M 943 506.687 C 942.2 506.179 941.1 505.671 940.5 505.671 C 940 505.671 940.2 506.179 941 506.687 C 941.8 507.195 943 507.703 943.5 507.703 C 944.1 507.703 943.8 507.195 943 506.687 Z  M 873 503.64 C 873 503.132 872.1 502.624 871 502.624 C 869.9 502.624 869 503.132 869 503.64 C 869 504.249 869.9 504.655 871 504.655 C 872.1 504.655 873 504.249 873 503.64 Z  M 937.9 504.249 C 935.5 502.014 906.3 491.349 902.9 491.552 C 901.4 491.552 916.3 497.139 921.5 498.459 C 923.2 498.967 927 500.491 930 501.913 C 934.7 504.148 939.2 505.468 937.9 504.249 Z  M 866.5 501.811 C 864.7 500.186 854.8 496.529 852.4 496.529 C 848.9 496.529 849.3 499.577 852.8 499.678 C 854.3 499.678 857.1 500.389 859 501.1 C 862.9 502.624 867.9 503.132 866.5 501.811 Z  M 848.3 496.529 C 847 495.31 841 494.498 841 495.514 C 841 496.123 842.1 496.529 843.4 496.529 C 844.8 496.529 846.2 497.037 846.5 497.545 C 846.9 498.155 847.6 498.256 848.2 497.951 C 848.7 497.647 848.8 496.936 848.3 496.529 Z  M 1110.4 493.482 C 1109.5 492.568 1104.6 491.654 1084.5 488.302 C 1080.7 487.692 1075.5 486.778 1073 486.372 C 1070.5 485.864 1064.7 484.95 1060 484.34 C 1055.3 483.629 1047.5 482.512 1042.5 481.801 C 1037.6 480.988 1029.7 479.871 1025 479.261 C 1016.8 478.144 1009.7 477.128 996.8 475.198 C 988 473.979 977.1 472.456 966.5 471.135 C 961.6 470.526 954.4 469.611 950.5 469.104 C 946.7 468.596 937.2 467.478 929.5 466.564 C 915.6 465.041 905 463.822 891.5 461.993 C 887.7 461.485 881.4 460.774 877.5 460.47 C 873.7 460.165 866.2 459.454 861 458.946 C 821.8 455.086 807.9 454.172 809.3 455.594 C 809.7 455.899 815.3 456.61 821.7 457.016 C 828.2 457.422 838.6 458.235 844.8 458.844 C 850.9 459.454 860.8 460.368 866.8 460.977 C 872.7 461.485 881.3 462.4 886 463.009 C 895.1 464.126 902.4 465.041 924.5 467.58 C 932.2 468.393 941.7 469.611 945.5 470.119 C 949.4 470.729 955 471.44 958 471.745 C 961 471.948 966 472.659 969 473.167 C 974.2 473.979 979.9 474.792 997.8 477.23 C 1002 477.839 1008.4 478.753 1012 479.261 C 1042.7 483.832 1037.5 483.02 1071 488.403 C 1081.7 490.13 1093.7 492.161 1097.5 492.974 C 1106.1 494.599 1111.8 494.904 1110.4 493.482 Z  M 897.5 490.028 C 890.2 487.692 887.8 487.286 888.5 488.403 C 888.8 488.911 890.1 489.419 891.3 489.419 C 892.5 489.419 894.2 489.927 895 490.435 C 895.8 490.943 897.6 491.349 899 491.349 C 901 491.247 900.6 490.943 897.5 490.028 Z  M 668.9 452.547 C 669.5 451.734 669.7 450.82 669.3 450.515 C 668.3 449.499 663.7 449.702 662 450.82 C 660.7 451.632 660.8 451.836 662.3 451.836 C 663.2 451.836 664 452.343 664 452.851 C 664 454.375 667.6 454.07 668.9 452.547 Z  M 214.7 449.601 C 214.4 448.788 214.1 449.093 214.1 450.21 C 214 451.328 214.3 451.937 214.6 451.531 C 214.9 451.226 215 450.312 214.7 449.601 Z  M 659.5 450.82 C 658.8 449.601 648.2 449.601 642.5 450.718 C 639.4 451.429 640.8 451.632 649.3 451.734 C 656.3 451.836 659.9 451.429 659.5 450.82 Z " fill="rgb(255,255,255)"/><path d=" M 158 791.3 C 155.6 789.8 154.1 788.5 154.7 788.3 C 155.9 787.9 171.8 790.5 175.5 791.7 C 177 792.2 176.4 792.6 173 793.1 C 165.2 794.4 162.6 794.1 158 791.3 Z " fill="rgb(247,248,242)"/><path d=" M 716.8 773.3 C 717.5 773 718.4 773.1 718.7 773.4 C 719.1 773.7 718.5 774 717.4 773.9 C 716.3 773.9 716 773.6 716.8 773.3 Z " fill="rgb(247,248,242)"/><path d=" M 127.9 767.3 C 124.7 764.2 122.2 761.5 122.4 761.2 C 122.9 760.8 137 771.7 137 772.5 C 137 774.4 132.9 772.1 127.9 767.3 Z " fill="rgb(247,248,242)"/><path d=" M 731 770.5 C 658.8 767.3 581.9 765.3 491.9 764.4 C 458.6 764 429.8 763.6 427.9 763.5 C 426 763.4 403.1 763.2 377 763 C 324.6 762.7 327 762 387.5 760.1 C 406.8 759.4 435.3 758.5 451 758 C 466.7 757.4 493.9 756.6 511.5 756 C 529.1 755.5 555.7 754.6 570.5 754 C 585.4 753.5 611.5 752.6 628.5 752 C 645.6 751.5 666.9 750.7 676 750.4 C 685.1 750 699.5 749.6 708.1 749.6 L 723.6 749.5 L 729.6 753.1 C 742.9 761.4 756.9 767 773 770.6 L 778.5 771.8 L 769 771.8 C 763.8 771.7 746.7 771.2 731 770.5 Z " fill="rgb(247,248,242)"/><path d=" M 786.5 753.3 C 772.6 751.6 762.4 749.2 763.6 748 C 764.1 747.5 777.1 746.6 792.5 746.1 C 807.9 745.5 823.4 744.8 827 744.5 C 834.5 744 837.7 745.1 833.3 746.8 C 820.5 751.8 798.7 754.8 786.5 753.3 Z " fill="rgb(247,248,242)"/><path d=" M 103 675 C 103 674.3 103.3 674 103.7 674.3 C 104 674.7 104 675.3 103.7 675.7 C 103.3 676 103 675.7 103 675 Z " fill="rgb(247,248,242)"/><path d=" M 205.5 586 C 207.3 582.9 212.4 577 213.2 577 C 213.6 577 214 578.1 214 579.5 C 214 580.9 213.5 582 212.9 582 C 212.3 582 210.2 583.2 208.2 584.8 C 206.2 586.3 205 586.8 205.5 586 Z " fill="rgb(247,248,242)"/><path d=" M 138 565 C 138 564.5 139.4 563.4 141 562.5 C 144.6 560.7 144.8 561.2 141.8 564 C 139.4 566.2 138 566.6 138 565 Z " fill="rgb(247,248,242)"/><path d=" M 239 562 C 239 561 245.8 559.5 246.7 560.4 C 247.3 561 242.7 563 240.4 563 C 239.6 563 239 562.6 239 562 Z " fill="rgb(247,248,242)"/><path d=" M 158.5 553 C 158.8 552.5 159.6 552 160.1 552 C 160.7 552 160.8 552.5 160.5 553 C 160.2 553.6 159.4 554 158.9 554 C 158.3 554 158.2 553.6 158.5 553 Z " fill="rgb(247,248,242)"/><path d=" M 195.3 542.3 C 195.7 542 196.3 542 196.7 542.3 C 197 542.7 196.7 543 196 543 C 195.3 543 195 542.7 195.3 542.3 Z " fill="rgb(247,248,242)"/><path d=" M 206.3 541.3 C 206.7 541 207.3 541 207.7 541.3 C 208 541.7 207.7 542 207 542 C 206.3 542 206 541.7 206.3 541.3 Z " fill="rgb(247,248,242)"/><path d=" M 225.3 541.3 C 225.7 541 226.3 541 226.7 541.3 C 227 541.7 226.7 542 226 542 C 225.3 542 225 541.7 225.3 541.3 Z " fill="rgb(247,248,242)"/><path d=" M 510.6 672.9 C 512 670.5 542.4 657.1 556.8 652.5 C 560.6 651.3 562 650.4 561.8 649.2 C 561.6 647.9 562.7 647.4 567 646.8 C 570 646.3 575.9 645.3 580.1 644.4 C 588.8 642.5 592.1 642.9 587.5 645.2 C 585.9 646.1 576.6 649.3 567 652.5 C 557.4 655.7 548.6 658.7 547.5 659.1 C 546.4 659.6 543 660.9 539.8 662 C 536.7 663.1 529.8 666.3 524.5 669 C 515.4 673.7 509 675.5 510.6 672.9 Z " fill="rgb(247,248,242)"/><path d=" M 550.5 672.2 C 551.8 671 570 664.7 570.6 665.2 C 571.5 666.1 567.4 668.8 563 670.3 C 556.9 672.3 549.2 673.5 550.5 672.2 Z " fill="rgb(247,248,242)"/><path d=" M 502.4 664.5 C 501.3 661.8 502.8 660.2 507.7 659.2 C 510.3 658.6 519.9 656.4 529 654.5 C 538.1 652.5 546.4 650.6 547.5 650.3 C 549.3 649.8 549.3 650 548 651.3 C 546.2 653.1 508.7 666 505.3 666 C 504 666 502.7 665.3 502.4 664.5 Z " fill="rgb(247,248,242)"/><path d=" M 562.5 663.7 C 563.6 662.9 567.4 661.2 571 659.7 C 584.1 654.6 589 652 589 650.5 C 589 649.7 589.5 649 590.2 649 C 590.8 649 593.6 647.2 596.5 645 C 599.3 642.8 603.2 640.8 605.1 640.4 L 608.5 639.9 L 604.5 643.5 C 596 651.3 580.5 660 569 663.4 C 562.2 665.4 559.8 665.5 562.5 663.7 Z " fill="rgb(247,248,242)"/><path d=" M 562.5 659 C 562.8 658.5 563.3 658 563.6 658 C 563.9 658 563.8 658.5 563.5 659 C 563.2 659.6 562.7 660 562.4 660 C 562.1 660 562.2 659.6 562.5 659 Z " fill="rgb(247,248,242)"/><path d=" M 609.9 636.9 C 608.9 636.3 609.2 636 611.3 636 C 614.2 636 614.8 636.5 612.7 637.3 C 611.9 637.6 610.7 637.4 609.9 636.9 Z " fill="rgb(247,248,242)"/><path d=" M 217 671.1 C 217 670.5 217.5 669.8 218 669.5 C 218.6 669.2 219 669.6 219 670.4 C 219 671.3 218.6 672 218 672 C 217.5 672 217 671.6 217 671.1 Z " fill="rgb(247,248,242)"/><path d=" M 207.3 669 C 207 667.9 206.4 667 205.9 667 C 204.3 667 205 663.4 206.8 661.7 C 209.2 659.5 212.9 659.5 213.7 661.8 C 214.1 662.7 214.8 663.8 215.4 664.3 C 216.2 664.8 216 665.4 214.9 666.3 C 214.1 666.9 213.1 668.3 212.7 669.3 C 211.8 671.7 207.9 671.5 207.3 669 Z " fill="rgb(247,248,242)"/><path d=" M 219.1 663.4 C 219.1 662.3 219.4 662 219.7 662.8 C 220 663.5 219.9 664.4 219.6 664.7 C 219.3 665.1 219 664.5 219.1 663.4 Z " fill="rgb(247,248,242)"/><path d=" M 610.8 666.3 C 603.9 664.5 618.4 661.6 633.4 661.7 C 639.8 661.8 644.6 662.2 645.3 662.9 C 646.1 663.7 645.2 664 642 664 C 639.5 664 633.9 664.7 629.5 665.5 C 621.7 666.9 614.3 667.2 610.8 666.3 Z " fill="rgb(247,248,242)"/><path d=" M 645.5 659 C 645.2 658.5 645.6 658 646.5 658 C 647.4 658 647.8 658.5 647.5 659 C 647.2 659.6 646.7 660 646.5 660 C 646.3 660 645.8 659.6 645.5 659 Z " fill="rgb(247,248,242)"/><path d=" M 681.7 646.4 C 680.6 645.3 680.8 640.2 682 639.5 C 682.6 639.2 683.3 639.6 683.6 640.4 C 684.3 642.3 682.7 647.4 681.7 646.4 Z " fill="rgb(247,248,242)"/><path d=" M 698 637.1 C 698 635.4 698.5 633.8 699 633.5 C 699.6 633.1 700 634.3 700 636.4 C 700 638.4 699.6 640 699 640 C 698.5 640 698 638.7 698 637.1 Z " fill="rgb(247,248,242)"/><path d=" M 702.3 629.3 C 699.5 628.8 699.5 628.2 701.9 620.5 C 703.8 614.2 707.1 611.1 710.3 612.3 C 712.6 613.2 712.5 615 710.2 615 C 707.6 615 706.8 616.1 708.1 617.6 C 708.9 618.6 708.6 619.5 706.7 621.2 C 705.3 622.5 703.9 624.5 703.5 625.8 C 703 627.6 703.3 628 704.9 628 C 706.1 628 707 628.5 707 629 C 707 630 706.2 630.1 702.3 629.3 Z " fill="rgb(247,248,242)"/><path d=" M 527.4 633.7 C 527.1 632.9 527 630.1 527.2 627.4 C 527.5 622.5 527.5 622.5 531.5 621.8 C 540.3 620.3 574.6 616.8 582.5 616.6 C 590 616.5 591.1 616.7 593.4 618.9 C 594.8 620.3 596 622.4 596 623.7 L 596 626 L 579.8 626 C 565 626.1 547.8 627.6 537.5 629.8 C 534.9 630.4 540.7 630.6 553.5 630.4 C 574.7 630.1 573.7 630.8 550 632.9 C 543.1 633.6 535.4 634.3 532.8 634.6 C 529.1 635.1 527.9 634.8 527.4 633.7 Z " fill="rgb(247,248,242)"/><path d=" M 423.2 591.3 C 423.6 587.7 426.5 587.4 426.5 591 C 426.5 592.6 425.9 593.6 424.7 593.8 C 423.2 594.1 422.9 593.6 423.2 591.3 Z " fill="rgb(247,248,242)"/><path d=" M 400.1 587.3 C 395.9 587 394.7 586.5 394.3 585 C 394 583.9 392.3 582.6 390.4 582 C 386.5 580.7 385.9 579 389.3 579 C 390.6 579 392.6 580.1 393.7 581.4 C 395 582.9 397.4 584 400.2 584.4 C 404.4 585 410.7 588.2 407 587.8 C 406.2 587.7 403.1 587.5 400.1 587.3 Z " fill="rgb(247,248,242)"/><path d=" M 367.1 582.6 C 366.1 581.4 366.3 580.9 367.9 580.1 C 369 579.5 370.7 579 371.7 579 C 372.7 578.9 376 578.1 379 577 C 387.6 574.1 388.2 575.7 380.3 580.9 C 375.2 584.3 369.1 585.1 367.1 582.6 Z " fill="rgb(247,248,242)"/><path d=" M 391 573 C 391 572.5 391.7 572 392.6 572 C 393.4 572 393.8 572.5 393.5 573 C 393.2 573.6 392.5 574 391.9 574 C 391.4 574 391 573.6 391 573 Z " fill="rgb(247,248,242)"/><path d=" M 627.7 570.6 C 627.3 569.6 627.6 569.3 628.6 569.7 C 629.3 570 630 570.6 630 571.1 C 630 572.5 628.3 572.1 627.7 570.6 Z " fill="rgb(247,248,242)"/><path d=" M 628 562.8 C 628 562.1 628.5 560.8 629 560 C 629.8 558.8 630 558.9 630 560.7 C 630 561.9 629.6 563.2 629 563.5 C 628.5 563.8 628 563.5 628 562.8 Z " fill="rgb(247,248,242)"/><path d=" M 710.3 547 C 710.9 542.6 712.5 540 714.6 540 C 716.6 540 716.3 543.4 713.9 547.4 C 711.1 552.2 709.6 552 710.3 547 Z " fill="rgb(247,248,242)"/><path d=" M 705 539.9 C 704.3 538.8 702.2 536 700.2 533.8 C 696.8 530 696.7 529.8 699 530.5 C 700.4 530.9 701.9 531.6 702.5 532.1 C 704.8 534.3 707.1 532.8 711.1 526 C 713.9 521.2 715.8 519 717.1 519 C 720.5 519 720.3 521.7 716.3 527.7 C 714.2 530.9 711.6 535.4 710.6 537.8 C 708.5 542.4 706.7 543.1 705 539.9 Z " fill="rgb(247,248,242)"/><path d=" M 690.4 526.5 C 688.6 525 688.6 525 690.9 525.2 C 692.3 525.4 693.5 526.1 693.8 526.8 C 694.3 528.5 692.8 528.3 690.4 526.5 Z " fill="rgb(247,248,242)"/><path d=" M 704.3 526 C 704.7 524.6 705 523.2 705 522.8 C 705 522.3 705.5 522 706 522 C 707.6 522 707.1 525.6 705.3 527.1 C 703.8 528.4 703.7 528.2 704.3 526 Z " fill="rgb(247,248,242)"/><path d=" M 636.8 605 C 638 601.9 645.3 593 646.7 593 C 648.6 593 648.4 593.4 642.8 600.5 C 637.5 607.1 635.5 608.6 636.8 605 Z " fill="rgb(247,248,242)"/><path d=" M 721.9 563.2 C 722.9 561.3 727.2 558 728.6 558 C 729.7 558 724.8 563 722.7 564.2 C 721.1 565 721 564.9 721.9 563.2 Z " fill="rgb(247,248,242)"/></g></g></g></g></g></svg>