<?xml version="1.0" encoding="UTF-8" standalone="no"?><!-- Generator: Gravit.io --><svg xmlns="http://www.w3.org/2000/svg" xmlns:xlink="http://www.w3.org/1999/xlink" style="isolation:isolate" viewBox="431.755 443.401 811.245 381.158" width="811.245pt" height="381.158pt"><g><path d=" M 450 794 C 446.625 762.609 470.768 739.352 493 721 C 597.828 634.469 641.151 598.125 704 552 C 842.333 452.333 899.973 456.837 928 449 C 1011.95 436.844 1096.343 468.411 1155 521 C 1198.88 560.34 1226.172 618.359 1240 641 Q 1238.438 660.438 1238 684 Q 1091 751.333 819 776 C 689.906 790.805 524.25 802.266 450 794 Z " fill="rgb(248,255,234)" vector-effect="non-scaling-stroke" stroke-width="2" stroke="rgb(0,0,0)" stroke-linejoin="miter" stroke-linecap="square" stroke-miterlimit="3"/><path d=" M 753 519 Q 787.125 496.313 836 475 Q 904.359 445.5 962 446 C 962.197 445.993 1030.667 439.667 1067 486 C 1114.75 539 1135 584 1117 698 C 1051.75 709 947.39 737.264 947 737 Q 819.333 650.667 717 611 L 641 600 Q 712.506 545.922 753 519 Z " fill="rgb(193,193,193)" vector-effect="non-scaling-stroke" stroke-width="1" stroke="rgb(0,0,0)" stroke-linejoin="miter" stroke-linecap="square" stroke-miterlimit="3"/><path d=" M 579 651 L 629 655 Q 658.871 663.491 675 662 C 722.672 657.594 747.363 652.854 802 647 C 1039.125 621.563 974.953 633.375 1135 605 C 1160 599.25 1197.875 581 1195 567 Q 1194.996 567.012 1206 585 Q 1194 607.5 1138 621 Q 1057.5 641 675 673 Q 653.375 674.375 621 662 Q 601.097 660.049 570 657 L 579 651 Z " fill="rgb(255,69,13)" vector-effect="non-scaling-stroke" stroke-width="1" stroke="rgb(0,0,0)" stroke-linejoin="miter" stroke-linecap="square" stroke-miterlimit="3"/><g><path d=" M 434 661 C 438.93 707.884 451.031 723.469 467 745 Q 482.748 726.785 595 637 Q 595.908 569.739 578 540 C 504.333 417.667 424.688 572.438 434 661 Z " fill="rgb(0,0,0)" vector-effect="non-scaling-stroke" stroke-width="1" stroke="rgb(0,0,0)" stroke-linejoin="miter" stroke-linecap="square" stroke-miterlimit="3"/><path d=" M 458 641 Q 459.5 704.5 483 729 L 587 643 Q 587.156 574.781 568 543 C 511.5 458.062 453.25 585.25 458 641 Z " fill="rgb(243,249,230)" vector-effect="non-scaling-stroke" stroke-width="1" stroke="rgb(0,0,0)" stroke-linejoin="miter" stroke-linecap="square" stroke-miterlimit="3"/></g><path d=" M 534.061 676.844 C 501.352 672.038 507.562 590.437 539 589 C 550.613 588.469 557.07 598.699 559.466 612.356 L 560 611 L 564 613 L 566 609 L 593 609 L 595 624 L 603 630 L 581 649 L 540 682 L 534 677 L 534.061 676.844 Z " fill-rule="evenodd" fill="rgb(0,0,0)" vector-effect="non-scaling-stroke" stroke-width="1" stroke="rgb(0,0,0)" stroke-linejoin="miter" stroke-linecap="square" stroke-miterlimit="3"/><path d=" M 658 594 Q 700.77 600.001 724 598 Q 820 548 897 479 Q 874.719 475.938 858 472 Q 788 494.333 658 594 Z " fill="rgb(134,206,242)" fill-opacity="0.53" vector-effect="non-scaling-stroke" stroke-width="1" stroke="rgb(0,0,0)" stroke-linejoin="miter" stroke-linecap="square" stroke-miterlimit="3"/><path d=" M 802 624 C 839.75 635.875 1087.875 589.5 1095 582 C 1082.688 551.645 1066.198 499.155 1009 468 C 948 469.5 756.875 607 802 624 Z " fill="rgb(134,206,242)" fill-opacity="0.53" vector-effect="non-scaling-stroke" stroke-width="1" stroke="rgb(0,0,0)" stroke-linejoin="miter" stroke-linecap="square" stroke-miterlimit="3"/><g><path d=" M 1005 527 C 910.333 514.333 880.667 828 988 823 C 1089.188 795 1081 527.25 1005 527 Z " fill="rgb(0,0,0)" vector-effect="non-scaling-stroke" stroke-width="1" stroke="rgb(0,0,0)" stroke-linejoin="miter" stroke-linecap="square" stroke-miterlimit="3"/><path d=" M 1014 552 C 936 550 917.75 826.25 1005 801 C 1070.25 758.75 1072.5 564 1014 552 Z " fill="rgb(243,249,230)" vector-effect="non-scaling-stroke" stroke-width="1" stroke="rgb(0,0,0)" stroke-linejoin="miter" stroke-linecap="square" stroke-miterlimit="3"/><path d=" M 1014 665 C 1004.95 665.726 1004.475 694.761 1013 690 C 1018.875 686.719 1019.062 664.594 1014 665 Z " fill="rgb(0,0,0)" vector-effect="non-scaling-stroke" stroke-width="1" stroke="rgb(0,0,0)" stroke-linejoin="miter" stroke-linecap="square" stroke-miterlimit="3"/><path d=" M 849 677 L 908 660 L 910 639 L 924 639 L 920 699 L 906 699 L 908 680 L 856 702 L 848 700 L 844 682 L 849 677 Z " fill="rgb(0,0,0)" vector-effect="non-scaling-stroke" stroke-width="1" stroke="rgb(0,0,0)" stroke-linejoin="miter" stroke-linecap="square" stroke-miterlimit="3"/></g></g></svg>