<?xml version="1.0" encoding="UTF-8" standalone="no"?><!-- Generator: Gravit.io --><svg xmlns="http://www.w3.org/2000/svg" xmlns:xlink="http://www.w3.org/1999/xlink" style="isolation:isolate" viewBox="0 0 400 400" width="400pt" height="400pt"><rect x="0" y="0" width="400" height="400" transform="matrix(1,0,0,1,0,0)" fill="rgb(62,62,62)"/><g><path d=" M 384.5 114.5 L 518.5 130.45 M 463.5 440 L 365.5 368.5 L 260 330 L 154.5 269 L 20 299.5 L 147.5 382 L 63.25 439.75 L 20 299.5 L -98.5 246.5 L 51 191 L -15.5 114.5 L 63.25 39.75 L -34.5 -31.5" fill="none" vector-effect="non-scaling-stroke" stroke-width="0.5" stroke="rgb(102,102,102)" stroke-linejoin="miter" stroke-linecap="butt" stroke-miterlimit="4"/><path d=" M -15.5 114.5 L 118.5 130.5 L 195 191 L 301.5 246.5 L 154.25 268.75 L 50.75 190.75 M 185 452.5 L 147.5 382" fill="none" vector-effect="non-scaling-stroke" stroke-width="0.5" stroke="rgb(102,102,102)" stroke-linejoin="miter" stroke-linecap="butt" stroke-miterlimit="4"/><mask id="_mask_aZt5EUiIFuBFwnMT5dBuYvQkzJTEmFKx" x="-200%" y="-200%" width="400%" height="400%"><rect x="-200%" y="-200%" width="400%" height="400%" style="fill:white;"/><path d=" M 260 330 L 289 421 L 365.5 368.5 L 420 299.5 L 301.5 246.5 L 260 330 L 147.5 382 L 154.5 269 L 195 191 L 269.5 134.5 L 384.5 114.5 L 288.75 20.75 L 185 52.5 L 147.5 -18 L 63.25 39.75 L 118.5 130.5 L 51 191 L 20 299.5 L -34.5 368.5 L 63.5 440" fill="black" stroke="none"/></mask><path d=" M 260 330 L 289 421 L 365.5 368.5 L 420 299.5 L 301.5 246.5 L 260 330 L 147.5 382 L 154.5 269 L 195 191 L 269.5 134.5 L 384.5 114.5 L 288.75 20.75 L 185 52.5 L 147.5 -18 L 63.25 39.75 L 118.5 130.5 L 51 191 L 20 299.5 L -34.5 368.5 L 63.5 440" fill="none" mask="url(#_mask_aZt5EUiIFuBFwnMT5dBuYvQkzJTEmFKx)" vector-effect="non-scaling-stroke" stroke-width="1" stroke="rgb(102,102,102)" stroke-linejoin="miter" stroke-linecap="butt" stroke-miterlimit="4"/><path d=" M 260 330 L 289 421 L 365.5 368.5 L 420 299.5 L 301.5 246.5 L 260 330 L 147.5 382 L 154.5 269 L 195 191 L 269.5 134.5 L 384.5 114.5 L 288.75 20.75 L 185 52.5 L 147.5 -18 L 63.25 39.75 L 118.5 130.5 L 51 191 L 20 299.5 L -34.5 368.5 L 63.5 440" fill="none"/><path d=" M 260 -70 L 289.25 21.25 L 365.5 -31.5 M 301.5 246.5 L 269.5 134.5 L 118.5 130.5 L 185 52.5 M 451 191 L 269.5 134.5 M 195 191 L 51 191" fill="none" vector-effect="non-scaling-stroke" stroke-width="0.5" stroke="rgb(102,102,102)" stroke-linejoin="miter" stroke-linecap="butt" stroke-miterlimit="4"/><path d=" M -111 21 L 63.25 39.75 L 185 52.5 L 269.5 134.5 L 288.75 20.75 L 463.5 40 L 384.5 114.5 L 451 191 L 301.5 246.5 L 365.5 368.5 M 147.5 -18 L 288.75 20.75 M 289 421 L 147.5 382 M 20 -100.5 L 63.5 40 M 51 191 L -130.5 134.5" fill="none" vector-effect="non-scaling-stroke" stroke-width="0.5" stroke="rgb(102,102,102)" stroke-linejoin="miter" stroke-linecap="butt" stroke-miterlimit="4"/></g><g><circle vector-effect="non-scaling-stroke" cx="384.5" cy="114.5" r="2.5" fill="rgb(255,69,13)"/><circle vector-effect="non-scaling-stroke" cx="269.5" cy="134.5" r="2.5" fill="rgb(255,69,13)"/><circle vector-effect="non-scaling-stroke" cx="301.5" cy="246.5" r="2.5" fill="rgb(255,69,13)"/><circle vector-effect="non-scaling-stroke" cx="365.5" cy="368.5" r="2.5" fill="rgb(255,69,13)"/><circle vector-effect="non-scaling-stroke" cx="260" cy="330" r="2.5" fill="rgb(255,69,13)"/><circle vector-effect="non-scaling-stroke" cx="154.5" cy="269" r="2.5" fill="rgb(255,69,13)"/><circle vector-effect="non-scaling-stroke" cx="147.5" cy="382" r="2.5" fill="rgb(255,69,13)"/><circle vector-effect="non-scaling-stroke" cx="20" cy="299.5" r="2.5" fill="rgb(255,69,13)"/><circle vector-effect="non-scaling-stroke" cx="51" cy="191" r="2.5" fill="rgb(255,69,13)"/><circle vector-effect="non-scaling-stroke" cx="63.5" cy="40" r="2.5" fill="rgb(255,69,13)"/><circle vector-effect="non-scaling-stroke" cx="185" cy="52.5" r="2.5" fill="rgb(255,69,13)"/><circle vector-effect="non-scaling-stroke" cx="289" cy="21" r="2.5" fill="rgb(255,69,13)"/><circle vector-effect="non-scaling-stroke" cx="118.5" cy="130.5" r="2.5" fill="rgb(255,69,13)"/><circle vector-effect="non-scaling-stroke" cx="195" cy="191" r="2.5" fill="rgb(255,69,13)"/></g></svg>