<?xml version="1.0" encoding="UTF-8" standalone="no"?><!-- Generator: Gravit.io --><svg xmlns="http://www.w3.org/2000/svg" xmlns:xlink="http://www.w3.org/1999/xlink" style="isolation:isolate" viewBox="0 0 95.271 92.305" width="95.271pt" height="92.305pt"><g><path d=" M 2 4.933 L 4.308 18.827 L 8.405 16.361 L 11.982 29.272 L 12.266 10.536 L 7.795 13.227 L 6.873 2 L 2 4.933 Z " fill="none" vector-effect="non-scaling-stroke" stroke-width="1" stroke="rgb(61,61,61)" stroke-opacity="0.3" stroke-linejoin="miter" stroke-linecap="butt" stroke-miterlimit="4"/><path d=" M 74.559 4.933 L 76.867 18.827 L 80.964 16.361 L 84.54 29.272 L 84.825 10.536 L 80.354 13.227 L 79.432 2 L 74.559 4.933 Z " fill="none" vector-effect="non-scaling-stroke" stroke-width="1" stroke="rgb(62,62,62)" stroke-opacity="0.3" stroke-linejoin="miter" stroke-linecap="butt" stroke-miterlimit="4"/><path d=" M 40.715 65.966 L 43.022 79.86 L 47.119 77.394 L 50.696 90.305 L 50.98 71.569 L 46.51 74.26 L 45.588 63.033 L 40.715 65.966 Z " fill="none" vector-effect="non-scaling-stroke" stroke-width="1" stroke="rgb(61,61,61)" stroke-opacity="0.3" stroke-linejoin="miter" stroke-linecap="butt" stroke-miterlimit="4"/><path d=" M 25.284 32.305 L 15.574 42.507 L 20.009 44.296 L 11.847 54.92 L 26.985 43.876 L 22.146 41.923 L 30.559 34.433 L 25.284 32.305 Z " fill="none" vector-effect="non-scaling-stroke" stroke-width="1" stroke="rgb(61,61,61)" stroke-opacity="0.3" stroke-linejoin="miter" stroke-linecap="butt" stroke-miterlimit="4"/><path d=" M 57.554 31.515 L 52.366 44.609 L 57.148 44.609 L 53.554 57.515 L 63.46 41.609 L 58.242 41.609 L 63.242 31.515 L 57.554 31.515 Z " fill="rgb(62,62,62)" fill-opacity="0.3"/><path d=" M 49.015 2 L 40.075 12.883 L 44.628 14.344 L 37.264 25.535 L 51.555 13.415 L 46.586 11.822 L 54.431 3.737 L 49.015 2 Z " fill="none" vector-effect="non-scaling-stroke" stroke-width="1" stroke="rgb(62,62,62)" stroke-opacity="0.3" stroke-linejoin="miter" stroke-linecap="butt" stroke-miterlimit="4"/><path d=" M 16.347 67.69 L 6.637 77.892 L 11.071 79.681 L 2.91 90.305 L 18.047 79.26 L 13.208 77.308 L 21.622 69.818 L 16.347 67.69 Z " fill="none" vector-effect="non-scaling-stroke" stroke-width="1" stroke="rgb(62,62,62)" stroke-opacity="0.3" stroke-linejoin="miter" stroke-linecap="butt" stroke-miterlimit="4"/><path d=" M 87.996 54.054 L 78.286 64.256 L 82.72 66.045 L 74.559 76.669 L 89.696 65.624 L 84.857 63.672 L 93.271 56.182 L 87.996 54.054 Z " fill="none" vector-effect="non-scaling-stroke" stroke-width="1" stroke="rgb(62,62,62)" stroke-opacity="0.3" stroke-linejoin="miter" stroke-linecap="butt" stroke-miterlimit="4"/></g></svg>