<?xml version="1.0" encoding="UTF-8" standalone="no"?><!-- Generator: Gravit.io --><svg xmlns="http://www.w3.org/2000/svg" xmlns:xlink="http://www.w3.org/1999/xlink" style="isolation:isolate" viewBox="507.441 248.695 95.27 92.305" width="95.27pt" height="92.305pt"><path d=" M 509.441 253.628 L 511.749 267.522 L 515.846 265.056 L 519.423 277.967 L 519.707 259.231 L 515.236 261.922 L 514.314 250.695 L 509.441 253.628 Z " fill="none" vector-effect="non-scaling-stroke" stroke-width="1" stroke="rgb(121,121,121)" stroke-opacity="0.15" stroke-linejoin="miter" stroke-linecap="butt" stroke-miterlimit="4"/><path d=" M 582 253.628 L 584.308 267.522 L 588.405 265.056 L 591.981 277.967 L 592.266 259.231 L 587.795 261.922 L 586.873 250.695 L 582 253.628 Z " fill="none" vector-effect="non-scaling-stroke" stroke-width="1" stroke="rgb(121,121,121)" stroke-opacity="0.15" stroke-linejoin="miter" stroke-linecap="butt" stroke-miterlimit="4"/><path d=" M 548.156 314.661 L 550.463 328.555 L 554.56 326.089 L 558.137 339 L 558.421 320.264 L 553.951 322.955 L 553.029 311.728 L 548.156 314.661 Z " fill="none" vector-effect="non-scaling-stroke" stroke-width="1" stroke="rgb(121,121,121)" stroke-opacity="0.15" stroke-linejoin="miter" stroke-linecap="butt" stroke-miterlimit="4"/><path d=" M 532.725 281 L 523.015 291.202 L 527.45 292.991 L 519.288 303.615 L 534.426 292.571 L 529.587 290.618 L 538 283.128 L 532.725 281 Z " fill="none" vector-effect="non-scaling-stroke" stroke-width="1" stroke="rgb(121,121,121)" stroke-opacity="0.15" stroke-linejoin="miter" stroke-linecap="butt" stroke-miterlimit="4"/><path d=" M 564.995 280.21 L 559.807 293.304 L 564.589 293.304 L 560.995 306.21 L 570.901 290.304 L 565.683 290.304 L 570.683 280.21 L 564.995 280.21 Z " fill="rgb(121,121,121)" fill-opacity="0.15"/><path d=" M 556.456 250.695 L 547.516 261.578 L 552.069 263.039 L 544.705 274.23 L 558.996 262.11 L 554.027 260.517 L 561.872 252.432 L 556.456 250.695 Z " fill="none" vector-effect="non-scaling-stroke" stroke-width="1" stroke="rgb(121,121,121)" stroke-opacity="0.15" stroke-linejoin="miter" stroke-linecap="butt" stroke-miterlimit="4"/><path d=" M 523.788 316.385 L 514.078 326.587 L 518.512 328.376 L 510.351 339 L 525.488 327.955 L 520.649 326.003 L 529.063 318.513 L 523.788 316.385 Z " fill="none" vector-effect="non-scaling-stroke" stroke-width="1" stroke="rgb(121,121,121)" stroke-opacity="0.15" stroke-linejoin="miter" stroke-linecap="butt" stroke-miterlimit="4"/><path d=" M 595.437 302.749 L 585.727 312.951 L 590.161 314.74 L 582 325.364 L 597.137 314.319 L 592.298 312.367 L 600.712 304.877 L 595.437 302.749 Z " fill="none" vector-effect="non-scaling-stroke" stroke-width="1" stroke="rgb(121,121,121)" stroke-opacity="0.15" stroke-linejoin="miter" stroke-linecap="butt" stroke-miterlimit="4"/></svg>