<?xml version="1.0" encoding="UTF-8" standalone="no"?><!-- Generator: Gravit.io --><svg xmlns="http://www.w3.org/2000/svg" xmlns:xlink="http://www.w3.org/1999/xlink" style="isolation:isolate" viewBox="800 138 194.5 150" width="194.5pt" height="150pt"><g><path d=" M 802.464 252.936 L 803.415 250.978 L 803.415 250.978 Q 803.901 251.651 804.345 251.974 L 804.345 251.974 L 804.345 251.974 Q 804.81 252.303 805.254 252.303 L 805.254 252.303 L 805.254 252.303 Q 805.672 252.303 805.947 252.02 L 805.947 252.02 L 805.947 252.02 Q 806.222 251.736 806.222 251.301 L 806.222 251.301 L 806.222 251.301 Q 806.222 250.826 805.994 250.556 L 805.994 250.556 L 805.994 250.556 Q 805.751 250.299 804.921 250.022 L 804.921 250.022 L 804.921 250.022 Q 803.79 249.64 803.32 249.033 L 803.32 249.033 L 803.32 249.033 Q 802.844 248.413 802.844 247.345 L 802.844 247.345 L 802.844 247.345 Q 802.844 245.96 803.59 245.09 L 803.59 245.09 L 803.59 245.09 Q 804.324 244.213 805.513 244.213 L 805.513 244.213 L 805.513 244.213 Q 806.185 244.213 806.729 244.431 L 806.729 244.431 L 806.729 244.431 Q 807.3 244.648 807.813 245.077 L 807.813 245.077 L 807.152 246.969 L 807.152 246.969 Q 806.803 246.593 806.412 246.389 L 806.412 246.389 L 806.412 246.389 Q 806.031 246.198 805.667 246.198 L 805.667 246.198 L 805.667 246.198 Q 805.297 246.198 805.048 246.428 L 805.048 246.428 L 805.048 246.428 Q 804.81 246.646 804.81 247.009 L 804.81 247.009 L 804.81 247.009 Q 804.81 247.358 805.017 247.589 L 805.017 247.589 L 805.017 247.589 Q 805.233 247.807 805.831 248.004 L 805.831 248.004 L 805.831 248.004 Q 805.852 248.011 805.868 248.014 L 805.868 248.014 L 805.868 248.014 Q 805.883 248.018 805.915 248.031 L 805.915 248.031 L 805.915 248.031 Q 807.205 248.459 807.617 248.993 L 807.617 248.993 L 807.617 248.993 Q 807.887 249.33 808.04 249.844 L 808.04 249.844 L 808.04 249.844 Q 808.177 250.332 808.177 250.952 L 808.177 250.952 L 808.177 250.952 Q 808.177 252.481 807.369 253.424 L 807.369 253.424 L 807.369 253.424 Q 806.555 254.354 805.212 254.354 L 805.212 254.354 L 805.212 254.354 Q 804.388 254.354 803.74 254.018 L 803.74 254.018 L 803.74 254.018 Q 803.093 253.681 802.464 252.936 L 802.464 252.936 L 802.464 252.936 Z  M 810.808 254.097 L 808.958 254.097 L 808.958 243.877 L 810.808 243.877 L 810.808 247.464 L 810.808 247.464 Q 810.808 247.721 810.787 248.13 L 810.787 248.13 L 810.787 248.13 Q 810.771 248.486 810.745 248.67 L 810.745 248.67 L 810.745 248.67 Q 811.099 247.925 811.58 247.576 L 811.58 247.576 L 811.58 247.576 Q 812.066 247.226 812.727 247.226 L 812.727 247.226 L 812.727 247.226 Q 813.25 247.226 813.657 247.424 L 813.657 247.424 L 813.657 247.424 Q 814.059 247.648 814.307 248.031 L 814.307 248.031 L 814.307 248.031 Q 814.535 248.413 814.609 248.842 L 814.609 248.842 L 814.609 248.842 Q 814.698 249.389 814.698 250.286 L 814.698 250.286 L 814.698 254.097 L 812.812 254.097 L 812.812 250.53 L 812.812 250.53 Q 812.812 249.719 812.605 249.369 L 812.605 249.369 L 812.605 249.369 Q 812.399 249.007 811.934 249.007 L 811.934 249.007 L 811.934 249.007 Q 811.353 249.007 811.078 249.547 L 811.078 249.547 L 811.078 249.547 Q 810.808 250.088 810.808 251.301 L 810.808 251.301 L 810.808 254.097 L 810.808 254.097 Z  M 817.271 249.91 L 819.433 249.91 L 819.433 249.91 Q 819.385 249.356 819.089 249.007 L 819.089 249.007 L 819.089 249.007 Q 818.794 248.657 818.365 248.657 L 818.365 248.657 L 818.365 248.657 Q 817.916 248.657 817.636 248.967 L 817.636 248.967 L 817.636 248.967 Q 817.345 249.316 817.271 249.91 L 817.271 249.91 L 817.271 249.91 Z  M 821.288 251.123 L 821.288 251.235 L 817.229 251.235 L 817.229 251.235 Q 817.245 252.013 817.541 252.422 L 817.541 252.422 L 817.541 252.422 Q 817.847 252.844 818.429 252.844 L 818.429 252.844 L 818.429 252.844 Q 818.852 252.844 819.153 252.64 L 819.153 252.64 L 819.153 252.64 Q 819.459 252.422 819.597 252.046 L 819.597 252.046 L 821.013 252.758 L 821.013 252.758 Q 820.765 253.517 820.115 253.932 L 820.115 253.932 L 820.115 253.932 Q 819.47 254.354 818.535 254.354 L 818.535 254.354 L 818.535 254.354 Q 817.139 254.354 816.294 253.378 L 816.294 253.378 L 816.294 253.378 Q 815.453 252.429 815.453 250.84 L 815.453 250.84 L 815.453 250.84 Q 815.453 249.29 816.294 248.248 L 816.294 248.248 L 816.294 248.248 Q 817.134 247.226 818.429 247.226 L 818.429 247.226 L 818.429 247.226 Q 819.75 247.226 820.517 248.261 L 820.517 248.261 L 820.517 248.261 Q 820.908 248.796 821.098 249.504 L 821.098 249.504 L 821.098 249.504 Q 821.288 250.213 821.288 251.123 L 821.288 251.123 L 821.288 251.123 Z  M 824.036 254.097 L 822.149 254.097 L 822.149 243.877 L 824.036 243.877 L 824.036 254.097 L 824.036 254.097 Z  M 827.142 254.097 L 825.255 254.097 L 825.255 243.877 L 827.142 243.877 L 827.142 254.097 L 827.142 254.097 Z " fill="rgb(232,30,38)"/><path d=" M 814.688 280.895 L 801.784 280.895 L 801.784 259.447 L 814.531 259.447 L 814.531 265.263 L 808.503 265.263 L 808.503 267.329 L 813.971 267.329 L 813.971 272.823 L 808.503 272.823 L 808.503 275.079 L 814.688 275.079 L 814.688 280.895 L 814.688 280.895 Z  M 826.723 266.098 L 826.723 272.222 L 826.723 272.222 Q 826.202 271.709 825.655 271.453 L 825.655 271.453 L 825.655 271.453 Q 825.109 271.197 824.51 271.197 L 824.51 271.197 L 824.51 271.197 Q 823.52 271.197 822.934 271.79 L 822.934 271.79 L 822.934 271.79 Q 822.348 272.383 822.348 273.365 L 822.348 273.365 L 822.348 273.365 Q 822.348 274.302 822.921 274.896 L 822.921 274.896 L 822.921 274.896 Q 823.494 275.489 824.405 275.489 L 824.405 275.489 L 824.405 275.489 Q 824.978 275.489 825.558 275.203 L 825.558 275.203 L 825.558 275.203 Q 826.137 274.918 826.723 274.361 L 826.723 274.361 L 826.723 280.382 L 826.723 280.382 Q 825.707 280.939 824.763 281.202 L 824.763 281.202 L 824.763 281.202 Q 823.819 281.466 822.908 281.466 L 822.908 281.466 L 822.908 281.466 Q 821.411 281.466 820.135 280.902 L 820.135 280.902 L 820.135 280.902 Q 818.859 280.338 817.869 279.239 L 817.869 279.239 L 817.869 279.239 Q 816.827 278.067 816.28 276.58 L 816.28 276.58 L 816.28 276.58 Q 815.734 275.093 815.734 273.423 L 815.734 273.423 L 815.734 273.423 Q 815.734 272.266 816 271.175 L 816 271.175 L 816 271.175 Q 816.267 270.083 816.801 269.102 L 816.801 269.102 L 816.801 269.102 Q 817.817 267.241 819.386 266.252 L 819.386 266.252 L 819.386 266.252 Q 820.955 265.263 822.908 265.263 L 822.908 265.263 L 822.908 265.263 Q 823.767 265.263 824.711 265.468 L 824.711 265.468 L 824.711 265.468 Q 825.655 265.674 826.723 266.098 L 826.723 266.098 L 826.723 266.098 Z  M 835.608 275.43 L 835.608 275.43 L 835.608 275.43 Q 836.311 275.43 836.753 274.859 L 836.753 274.859 L 836.753 274.859 Q 837.196 274.288 837.196 273.365 L 837.196 273.365 L 837.196 273.365 Q 837.196 272.427 836.76 271.863 L 836.76 271.863 L 836.76 271.863 Q 836.324 271.299 835.608 271.299 L 835.608 271.299 L 835.608 271.299 Q 834.878 271.299 834.442 271.863 L 834.442 271.863 L 834.442 271.863 Q 834.006 272.427 834.006 273.365 L 834.006 273.365 L 834.006 273.365 Q 834.006 274.302 834.442 274.866 L 834.442 274.866 L 834.442 274.866 Q 834.878 275.43 835.608 275.43 Z  M 843.472 273.365 L 843.472 273.365 L 843.472 273.365 Q 843.472 275.079 842.821 276.632 L 842.821 276.632 L 842.821 276.632 Q 842.17 278.185 840.959 279.371 L 840.959 279.371 L 840.959 279.371 Q 839.905 280.397 838.544 280.931 L 838.544 280.931 L 838.544 280.931 Q 837.183 281.466 835.608 281.466 L 835.608 281.466 L 835.608 281.466 Q 834.032 281.466 832.678 280.939 L 832.678 280.939 L 832.678 280.939 Q 831.324 280.411 830.243 279.371 L 830.243 279.371 L 830.243 279.371 Q 829.045 278.228 828.388 276.654 L 828.388 276.654 L 828.388 276.654 Q 827.73 275.079 827.73 273.365 L 827.73 273.365 L 827.73 273.365 Q 827.73 271.636 828.388 270.076 L 828.388 270.076 L 828.388 270.076 Q 829.045 268.516 830.243 267.358 L 830.243 267.358 L 830.243 267.358 Q 831.324 266.318 832.678 265.791 L 832.678 265.791 L 832.678 265.791 Q 834.032 265.263 835.608 265.263 L 835.608 265.263 L 835.608 265.263 Q 837.183 265.263 838.544 265.798 L 838.544 265.798 L 838.544 265.798 Q 839.905 266.333 840.985 267.358 L 840.985 267.358 L 840.985 267.358 Q 842.17 268.501 842.821 270.068 L 842.821 270.068 L 842.821 270.068 Q 843.472 271.636 843.472 273.365 Z  M 855.547 276.427 L 846.641 276.427 L 846.641 270.303 L 855.547 270.303 L 855.547 276.427 L 855.547 276.427 Z  M 864.718 280.895 L 858.351 280.895 L 858.351 265.747 L 864.588 265.747 L 864.588 267.871 L 864.588 267.871 Q 865.356 266.523 866.28 265.893 L 866.28 265.893 L 866.28 265.893 Q 867.205 265.263 868.403 265.263 L 868.403 265.263 L 868.403 265.263 Q 869.822 265.263 870.766 266.04 L 870.766 266.04 L 870.766 266.04 Q 871.71 266.816 872.296 268.472 L 872.296 268.472 L 872.296 268.472 Q 873.064 266.889 874.178 266.076 L 874.178 266.076 L 874.178 266.076 Q 875.291 265.263 876.671 265.263 L 876.671 265.263 L 876.671 265.263 Q 878.65 265.263 879.829 266.736 L 879.829 266.736 L 879.829 266.736 Q 881.007 268.208 881.007 270.698 L 881.007 270.698 L 881.007 280.895 L 874.692 280.895 L 874.692 273.277 L 874.692 273.277 Q 874.692 272.119 874.503 271.709 L 874.503 271.709 L 874.503 271.709 Q 874.314 271.299 873.859 271.299 L 873.859 271.299 L 873.859 271.299 Q 873.338 271.299 873.084 271.783 L 873.084 271.783 L 873.084 271.783 Q 872.83 272.266 872.83 273.277 L 872.83 273.277 L 872.83 280.895 L 866.606 280.895 L 866.606 273.277 L 866.606 273.277 Q 866.606 272.149 866.417 271.724 L 866.417 271.724 L 866.417 271.724 Q 866.228 271.299 865.76 271.299 L 865.76 271.299 L 865.76 271.299 Q 865.226 271.299 864.972 271.783 L 864.972 271.783 L 864.972 271.783 Q 864.718 272.266 864.718 273.277 L 864.718 273.277 L 864.718 280.895 L 864.718 280.895 Z  M 888.941 273.277 L 888.941 273.277 L 888.941 273.277 Q 888.941 274.244 889.403 274.837 L 889.403 274.837 L 889.403 274.837 Q 889.865 275.43 890.621 275.43 L 890.621 275.43 L 890.621 275.43 Q 891.389 275.43 891.845 274.844 L 891.845 274.844 L 891.845 274.844 Q 892.3 274.258 892.3 273.277 L 892.3 273.277 L 892.3 273.277 Q 892.3 272.281 891.838 271.68 L 891.838 271.68 L 891.838 271.68 Q 891.376 271.079 890.621 271.079 L 890.621 271.079 L 890.621 271.079 Q 889.865 271.079 889.403 271.687 L 889.403 271.687 L 889.403 271.687 Q 888.941 272.295 888.941 273.277 Z  M 898.537 280.895 L 892.509 280.895 L 892.509 278.609 L 892.509 278.609 Q 891.532 280.074 890.464 280.77 L 890.464 280.77 L 890.464 280.77 Q 889.397 281.466 888.108 281.466 L 888.108 281.466 L 888.108 281.466 Q 885.764 281.466 884.221 279.225 L 884.221 279.225 L 884.221 279.225 Q 882.678 276.983 882.678 273.453 L 882.678 273.453 L 882.678 273.453 Q 882.678 269.761 884.182 267.512 L 884.182 267.512 L 884.182 267.512 Q 885.686 265.263 888.108 265.263 L 888.108 265.263 L 888.108 265.263 Q 889.358 265.263 890.38 265.871 L 890.38 265.871 L 890.38 265.871 Q 891.402 266.479 892.274 267.754 L 892.274 267.754 L 892.274 265.747 L 898.537 265.747 L 898.537 280.895 L 898.537 280.895 Z  M 907.292 280.895 L 900.742 280.895 L 900.742 265.747 L 907.083 265.747 L 907.083 267.871 L 907.083 267.871 Q 907.93 266.567 908.971 265.915 L 908.971 265.915 L 908.971 265.915 Q 910.013 265.263 911.276 265.263 L 911.276 265.263 L 911.276 265.263 Q 911.471 265.263 911.569 265.271 L 911.569 265.271 L 911.569 265.271 Q 911.667 265.278 911.745 265.293 L 911.745 265.293 L 911.745 272.647 L 911.745 272.647 Q 911.198 272.31 910.742 272.149 L 910.742 272.149 L 910.742 272.149 Q 910.286 271.988 909.909 271.988 L 909.909 271.988 L 909.909 271.988 Q 908.659 271.988 907.975 272.749 L 907.975 272.749 L 907.975 272.749 Q 907.292 273.511 907.292 274.888 L 907.292 274.888 L 907.292 280.895 L 907.292 280.895 Z  M 918.924 273.277 L 918.924 273.277 L 918.924 273.277 Q 918.924 274.244 919.386 274.837 L 919.386 274.837 L 919.386 274.837 Q 919.848 275.43 920.603 275.43 L 920.603 275.43 L 920.603 275.43 Q 921.372 275.43 921.827 274.844 L 921.827 274.844 L 921.827 274.844 Q 922.283 274.258 922.283 273.277 L 922.283 273.277 L 922.283 273.277 Q 922.283 272.281 921.821 271.68 L 921.821 271.68 L 921.821 271.68 Q 921.359 271.079 920.603 271.079 L 920.603 271.079 L 920.603 271.079 Q 919.848 271.079 919.386 271.687 L 919.386 271.687 L 919.386 271.687 Q 918.924 272.295 918.924 273.277 Z  M 928.52 280.895 L 922.491 280.895 L 922.491 278.609 L 922.491 278.609 Q 921.515 280.074 920.447 280.77 L 920.447 280.77 L 920.447 280.77 Q 919.379 281.466 918.09 281.466 L 918.09 281.466 L 918.09 281.466 Q 915.747 281.466 914.204 279.225 L 914.204 279.225 L 914.204 279.225 Q 912.661 276.983 912.661 273.453 L 912.661 273.453 L 912.661 273.453 Q 912.661 269.761 914.164 267.512 L 914.164 267.512 L 914.164 267.512 Q 915.668 265.263 918.09 265.263 L 918.09 265.263 L 918.09 265.263 Q 919.34 265.263 920.362 265.871 L 920.362 265.871 L 920.362 265.871 Q 921.385 266.479 922.257 267.754 L 922.257 267.754 L 922.257 265.747 L 928.52 265.747 L 928.52 280.895 L 928.52 280.895 Z  M 938.134 280.895 L 931.597 280.895 L 931.597 271.328 L 929.735 271.328 L 929.735 265.747 L 931.597 265.747 L 931.597 260.736 L 938.134 260.736 L 938.134 265.747 L 939.996 265.747 L 939.996 271.328 L 938.134 271.328 L 938.134 280.895 L 938.134 280.895 Z  M 947.865 280.895 L 941.315 280.895 L 941.315 258.187 L 947.76 258.187 L 947.76 264.458 L 947.76 264.458 Q 947.76 265.747 947.734 266.465 L 947.734 266.465 L 947.734 266.465 Q 947.708 267.182 947.656 267.842 L 947.656 267.842 L 947.656 267.842 Q 948.503 266.538 949.531 265.901 L 949.531 265.901 L 949.531 265.901 Q 950.56 265.263 951.849 265.263 L 951.849 265.263 L 951.849 265.263 Q 953.997 265.263 955.254 266.728 L 955.254 266.728 L 955.254 266.728 Q 956.51 268.193 956.51 270.728 L 956.51 270.728 L 956.51 280.895 L 949.948 280.895 L 949.948 273.248 L 949.948 273.248 Q 949.948 272.105 949.746 271.687 L 949.746 271.687 L 949.746 271.687 Q 949.544 271.27 949.036 271.27 L 949.036 271.27 L 949.036 271.27 Q 948.464 271.27 948.164 271.768 L 948.164 271.768 L 948.164 271.768 Q 947.865 272.266 947.865 273.248 L 947.865 273.248 L 947.865 280.895 L 947.865 280.895 Z  M 965.929 275.43 L 965.929 275.43 L 965.929 275.43 Q 966.632 275.43 967.075 274.859 L 967.075 274.859 L 967.075 274.859 Q 967.517 274.288 967.517 273.365 L 967.517 273.365 L 967.517 273.365 Q 967.517 272.427 967.081 271.863 L 967.081 271.863 L 967.081 271.863 Q 966.645 271.299 965.929 271.299 L 965.929 271.299 L 965.929 271.299 Q 965.2 271.299 964.763 271.863 L 964.763 271.863 L 964.763 271.863 Q 964.327 272.427 964.327 273.365 L 964.327 273.365 L 964.327 273.365 Q 964.327 274.302 964.763 274.866 L 964.763 274.866 L 964.763 274.866 Q 965.2 275.43 965.929 275.43 Z  M 973.793 273.365 L 973.793 273.365 L 973.793 273.365 Q 973.793 275.079 973.142 276.632 L 973.142 276.632 L 973.142 276.632 Q 972.491 278.185 971.28 279.371 L 971.28 279.371 L 971.28 279.371 Q 970.226 280.397 968.865 280.931 L 968.865 280.931 L 968.865 280.931 Q 967.504 281.466 965.929 281.466 L 965.929 281.466 L 965.929 281.466 Q 964.353 281.466 962.999 280.939 L 962.999 280.939 L 962.999 280.939 Q 961.645 280.411 960.564 279.371 L 960.564 279.371 L 960.564 279.371 Q 959.366 278.228 958.709 276.654 L 958.709 276.654 L 958.709 276.654 Q 958.051 275.079 958.051 273.365 L 958.051 273.365 L 958.051 273.365 Q 958.051 271.636 958.709 270.076 L 958.709 270.076 L 958.709 270.076 Q 959.366 268.516 960.564 267.358 L 960.564 267.358 L 960.564 267.358 Q 961.645 266.318 962.999 265.791 L 962.999 265.791 L 962.999 265.791 Q 964.353 265.263 965.929 265.263 L 965.929 265.263 L 965.929 265.263 Q 967.504 265.263 968.865 265.798 L 968.865 265.798 L 968.865 265.798 Q 970.226 266.333 971.306 267.358 L 971.306 267.358 L 971.306 267.358 Q 972.491 268.501 973.142 270.068 L 973.142 270.068 L 973.142 270.068 Q 973.793 271.636 973.793 273.365 Z  M 982.001 280.895 L 975.451 280.895 L 975.451 265.747 L 981.793 265.747 L 981.793 267.842 L 981.793 267.842 Q 982.639 266.538 983.668 265.901 L 983.668 265.901 L 983.668 265.901 Q 984.696 265.263 985.985 265.263 L 985.985 265.263 L 985.985 265.263 Q 988.134 265.263 989.39 266.728 L 989.39 266.728 L 989.39 266.728 Q 990.647 268.193 990.647 270.728 L 990.647 270.728 L 990.647 280.895 L 984.11 280.895 L 984.11 273.248 L 984.11 273.248 Q 984.11 272.119 983.902 271.695 L 983.902 271.695 L 983.902 271.695 Q 983.694 271.27 983.173 271.27 L 983.173 271.27 L 983.173 271.27 Q 982.6 271.27 982.3 271.768 L 982.3 271.768 L 982.3 271.768 Q 982.001 272.266 982.001 273.248 L 982.001 273.248 L 982.001 280.895 L 982.001 280.895 Z " fill="rgb(232,30,38)"/><g><g><path d=" M 897.499 228.329 C 894.019 228.329 892.23 226.054 892.23 226.054 C 889.37 225.929 867.016 225.991 867.016 225.991 L 864.84 207.573 C 864.84 207.573 851.072 197.842 849.953 196.72 C 843.344 166.659 867.232 138 897.5 138 C 927.768 138 951.656 166.659 945.047 196.72 C 943.928 197.842 930.16 207.573 930.16 207.573 L 927.984 225.991 C 927.984 225.991 905.63 225.929 902.77 226.054 C 902.77 226.054 900.981 228.329 897.499 228.329 Z " fill-rule="evenodd" fill="rgb(237,28,36)"/><path d=" M 897.531 200.318 L 895.419 147.152 C 892.872 146.63 886.374 147.256 882.891 149.862 L 893.028 200.527 C 893.028 200.527 879.2 151.947 879.2 151.947 C 875.885 151.906 869.196 157.526 868.699 159.192 L 888.869 202.299 C 888.869 202.299 866.204 162.893 866.204 162.893 C 863.968 163.727 859.082 172.745 859.861 173.792 C 859.861 173.792 885.126 204.801 885.126 204.801 L 859.134 178.322 C 859.134 178.322 855.755 183.482 857.958 192.223 L 872.64 202.854 L 874.478 217.378 L 892.479 217.378 C 892.479 217.378 895.424 220.176 897.513 220.176 C 899.603 220.176 902.548 217.378 902.548 217.378 L 920.548 217.378 L 922.386 202.854 L 937.068 192.223 C 939.272 183.482 935.893 178.322 935.893 178.322 L 909.9 204.801 C 909.9 204.801 935.165 173.792 935.165 173.792 C 935.944 172.745 931.058 163.727 928.823 162.893 C 928.823 162.893 906.157 202.299 906.157 202.299 L 926.327 159.192 C 925.83 157.526 919.141 151.906 915.826 151.947 C 915.826 151.947 901.998 200.527 901.998 200.527 L 912.135 149.862 C 908.652 147.256 902.154 146.63 899.607 147.152 L 897.531 200.318 Z " fill-rule="evenodd" fill="rgb(255,213,0)"/></g></g></g></svg>