<?xml version="1.0" encoding="UTF-8" standalone="no"?><!-- Generator: Gravit.io --><svg xmlns="http://www.w3.org/2000/svg" xmlns:xlink="http://www.w3.org/1999/xlink" style="isolation:isolate" viewBox="48.703 324.312 123.787 30" width="123.787pt" height="30pt"><g><path d=" M 84.878 324.418 C 80.778 325.052 78.488 327.683 78.024 332.325 L 77.916 333.47 L 76.399 333.516 C 75.285 333.547 74.898 333.609 74.945 333.748 C 74.976 333.872 75.502 333.949 76.508 333.98 L 78.008 334.027 L 77.962 342.722 C 77.916 352.316 77.946 352.006 76.925 352.687 C 76.647 352.873 76.059 353.089 75.641 353.136 C 75.192 353.198 74.914 353.306 74.945 353.414 C 75.022 353.631 86.952 353.739 87.184 353.507 C 87.338 353.352 87.338 353.352 86.116 353.058 C 85.698 352.95 85.172 352.718 84.971 352.532 C 84.182 351.805 84.182 351.82 84.182 342.614 L 84.182 334.027 L 85.838 333.98 C 86.983 333.949 87.509 333.872 87.555 333.733 C 87.602 333.593 87.199 333.547 85.9 333.547 L 84.182 333.547 L 84.182 330.607 C 84.182 327.048 84.321 326.29 85.11 325.439 C 85.683 324.836 85.729 324.805 86.843 324.774 C 88.344 324.712 89.443 325.145 90.155 326.089 C 90.712 326.801 91.021 326.708 90.572 325.965 C 90.278 325.455 89.474 324.851 88.746 324.573 C 88.112 324.325 85.992 324.248 84.878 324.418 Z " fill="rgb(0,0,0)"/><path d=" M 99.577 324.418 C 97.628 324.728 95.663 325.702 94.688 326.878 C 93.605 328.178 92.692 330.87 92.692 332.773 L 92.692 333.547 L 91.145 333.547 C 89.876 333.547 89.598 333.593 89.598 333.779 C 89.598 333.965 89.876 334.011 91.145 334.011 L 92.708 334.011 L 92.661 342.707 C 92.615 350.753 92.599 351.465 92.336 351.929 C 91.98 352.579 91.269 353.012 90.34 353.136 C 89.861 353.198 89.598 353.306 89.598 353.445 C 89.598 353.631 90.634 353.662 95.709 353.662 C 100.784 353.662 101.821 353.631 101.821 353.445 C 101.821 353.321 101.589 353.213 101.202 353.151 C 100.289 353.027 99.485 352.563 99.16 351.96 C 98.897 351.449 98.881 350.877 98.881 342.722 L 98.881 334.011 L 100.583 334.011 C 101.991 334.011 102.285 333.965 102.285 333.779 C 102.285 333.593 101.991 333.547 100.568 333.547 L 98.866 333.547 L 98.912 330.097 C 98.959 326.754 98.974 326.646 99.345 325.981 C 99.841 325.114 100.552 324.728 101.666 324.728 C 103.167 324.728 104.39 325.3 104.962 326.275 C 105.21 326.693 105.535 326.785 105.535 326.445 C 105.535 326.12 104.312 324.96 103.693 324.697 C 102.858 324.341 100.939 324.217 99.577 324.418 Z " fill="rgb(0,0,0)"/><path d=" M 156.827 324.495 C 155.883 324.836 154.939 325.919 154.815 326.785 C 154.661 327.776 154.815 328.441 155.372 329.215 C 156.765 331.133 159.767 330.762 160.695 328.565 C 161.685 326.151 159.256 323.598 156.827 324.495 Z " fill="rgb(0,0,0)"/><path d=" M 56.563 333.609 C 55.48 333.857 53.623 334.537 53.113 334.878 C 52.401 335.342 52.958 335.373 53.964 334.909 C 56.331 333.841 59.395 333.485 61.112 334.073 C 62.953 334.708 63.897 336.317 64.036 339.086 L 64.114 340.665 L 63.433 340.417 C 60.029 339.21 55.217 339.659 52.215 341.454 C 48.332 343.775 47.573 347.612 50.42 350.521 C 52.339 352.501 54.907 353.538 58.42 353.77 C 60.292 353.894 61.87 353.615 63.216 352.965 L 64.299 352.439 L 64.717 352.873 C 64.934 353.12 65.259 353.399 65.429 353.492 C 65.63 353.6 67.116 353.662 69.545 353.662 C 72.67 353.662 73.351 353.631 73.351 353.445 C 73.351 353.306 73.088 353.198 72.593 353.136 C 72.175 353.089 71.603 352.873 71.324 352.687 C 70.365 352.037 70.349 351.944 70.241 346.157 C 70.133 340.371 70.102 340.108 69.111 338.112 C 68.075 336.023 66.11 334.553 63.371 333.841 C 61.762 333.423 57.956 333.284 56.563 333.609 Z  M 62.984 340.68 L 63.99 341.051 L 64.083 346.467 C 64.129 349.716 64.114 351.96 64.021 352.068 C 63.804 352.377 62.365 352.996 61.422 353.198 C 60.23 353.461 57.971 353.337 57.197 352.965 C 56.285 352.532 55.604 351.759 55.31 350.846 C 54.907 349.608 54.815 344.626 55.155 343.279 C 55.526 341.856 56.346 340.912 57.662 340.417 C 58.621 340.061 61.685 340.216 62.984 340.68 Z " fill="rgb(0,0,0)"/><path d=" M 110.811 333.547 C 109.851 333.748 108.211 334.305 107.469 334.677 C 106.71 335.048 106.726 335.032 106.834 335.234 C 106.896 335.326 107.345 335.203 107.964 334.909 C 109.619 334.166 111.136 333.826 112.884 333.826 C 113.936 333.81 114.648 333.903 115.097 334.058 C 117.062 334.8 118.067 336.595 118.067 339.365 L 118.067 340.634 L 116.876 340.231 C 115.762 339.86 115.484 339.829 113.116 339.829 C 110.145 339.844 108.908 340.108 106.819 341.129 C 105.225 341.918 103.771 343.295 103.136 344.626 C 102.022 346.916 102.92 349.546 105.457 351.449 C 106.741 352.424 107.685 352.857 109.325 353.275 C 112.373 354.049 115.251 353.94 117.247 352.95 L 118.3 352.424 L 118.686 352.873 C 119.367 353.646 119.506 353.677 123.56 353.662 C 126.562 353.646 127.351 353.6 127.351 353.445 C 127.351 353.321 127.057 353.198 126.593 353.136 C 126.175 353.089 125.603 352.873 125.324 352.687 C 124.365 352.037 124.349 351.944 124.241 346.157 C 124.133 340.324 124.086 339.937 123.065 337.988 C 122.384 336.688 120.853 335.218 119.553 334.615 C 117.851 333.826 116.365 333.516 113.812 333.454 C 112.544 333.439 111.182 333.47 110.811 333.547 Z  M 116.381 340.525 C 117.046 340.695 117.681 340.928 117.804 341.02 C 117.99 341.175 118.052 342.134 118.114 346.591 L 118.191 351.975 L 117.557 352.377 C 116.211 353.228 113.503 353.615 111.832 353.182 C 110.996 352.981 110.037 352.316 109.681 351.697 C 109.186 350.877 108.939 349.236 108.939 346.745 C 108.923 343.883 109.124 342.707 109.774 341.856 C 110.749 340.587 111.631 340.216 113.72 340.2 C 114.741 340.2 115.545 340.293 116.381 340.525 Z " fill="rgb(0,0,0)"/><path d=" M 142.081 333.702 C 140.828 334.027 140.225 334.367 138.987 335.373 L 138.182 336.023 L 137.78 335.141 C 137.037 333.454 137.331 333.547 132.798 333.547 C 129.734 333.547 128.883 333.593 128.929 333.733 C 128.976 333.841 129.347 333.98 129.749 334.042 C 130.554 334.15 131.096 334.475 131.591 335.156 C 131.916 335.574 131.916 335.744 131.916 343.573 L 131.916 351.573 L 131.56 352.083 C 131.111 352.702 130.523 353.012 129.595 353.151 C 129.177 353.198 128.914 353.306 128.945 353.414 C 129.022 353.631 140.952 353.739 141.184 353.507 C 141.339 353.352 141.339 353.352 140.116 353.058 C 139.698 352.95 139.172 352.718 138.971 352.532 C 138.198 351.805 138.182 351.728 138.182 343.898 L 138.182 336.595 L 138.925 335.914 C 139.962 334.94 141.416 334.274 142.592 334.197 C 143.427 334.135 143.598 334.181 144 334.522 C 144.449 334.909 144.449 334.924 144.402 336.394 C 144.356 338.142 144.634 338.978 145.485 339.628 C 146.77 340.618 148.441 340.51 149.57 339.365 C 150.56 338.375 150.792 336.936 150.158 335.698 C 149.833 335.063 148.75 334.197 147.791 333.841 C 146.522 333.346 143.644 333.269 142.081 333.702 Z " fill="rgb(0,0,0)"/><path d=" M 151.643 333.779 C 151.643 333.949 151.814 334.011 152.216 334.011 C 153.144 334.011 154.104 334.568 154.444 335.311 C 154.707 335.899 154.738 336.471 154.738 343.604 C 154.738 350.598 154.707 351.31 154.46 351.805 C 154.104 352.517 153.33 353.012 152.402 353.136 C 151.907 353.198 151.643 353.306 151.643 353.445 C 151.643 353.631 152.649 353.662 157.802 353.631 C 161.407 353.6 163.944 353.522 163.944 353.445 C 163.944 353.368 163.527 353.198 163.016 353.089 C 162.521 352.981 161.933 352.718 161.732 352.532 C 160.927 351.805 160.927 351.759 160.927 343.542 C 160.927 335.404 160.865 334.553 160.215 333.903 C 159.86 333.547 159.844 333.547 155.744 333.547 C 152.201 333.547 151.643 333.578 151.643 333.779 Z " fill="rgb(0,0,0)"/><path d=" M 168.122 348.494 C 166.683 349.236 165.971 350.954 166.513 352.377 C 166.714 352.919 167.503 353.77 168.122 354.079 C 168.71 354.389 170.164 354.389 170.783 354.079 C 172.439 353.213 173.011 351.078 171.959 349.577 C 171.155 348.401 169.298 347.875 168.122 348.494 Z " fill="rgb(0,0,0)"/></g></svg>