<?xml version="1.0" encoding="UTF-8" standalone="no"?><!-- Generator: Gravit.io --><svg xmlns="http://www.w3.org/2000/svg" xmlns:xlink="http://www.w3.org/1999/xlink" style="isolation:isolate" viewBox="-2783 58.333 1198.267 395.667" width="1198.267pt" height="395.667pt"><g><path d=" M -1923.833 365.833 C -1919.533 365.133 -1911.933 363.233 -1907.133 361.733 L -1898.233 359.033 L -1898.233 326.133 L -1898.233 293.333 L -1912.733 293.333 L -1927.233 293.333 L -1927.233 316.733 L -1927.233 340.233 L -1932.933 341.333 C -1936.033 342.033 -1943.533 342.333 -1949.733 342.233 C -1960.233 341.833 -1961.233 341.633 -1968.433 338.033 C -1983.733 330.533 -1991.233 317.033 -1991.233 296.933 C -1991.233 281.733 -1986.833 269.733 -1978.133 261.233 C -1965.233 248.633 -1944.433 245.333 -1919.333 252.033 C -1904.933 255.833 -1906.333 256.533 -1903.633 243.433 C -1902.333 237.233 -1901.433 231.733 -1901.733 231.333 C -1902.733 229.733 -1919.933 226.333 -1932.533 225.233 C -1980.633 220.733 -2014.633 244.533 -2021.333 287.433 C -2023.733 302.533 -2020.633 322.133 -2013.933 334.833 C -2009.733 342.733 -1999.933 352.933 -1992.133 357.633 C -1985.133 361.733 -1973.133 365.833 -1963.733 367.333 C -1956.033 368.533 -1934.033 367.733 -1923.833 365.833 Z " fill="rgb(253,254,254)"/><path d=" M -1748.333 364.333 C -1726.333 359.033 -1714.433 346.633 -1713.433 327.833 C -1712.933 317.033 -1715.533 310.033 -1722.933 302.133 C -1729.033 295.733 -1735.833 291.933 -1754.233 284.333 C -1774.033 276.233 -1779.433 272.233 -1780.833 264.633 C -1782.233 256.933 -1775.933 250.833 -1764.133 248.333 C -1756.633 246.733 -1735.633 247.533 -1728.733 249.733 C -1726.033 250.533 -1723.633 251.033 -1723.333 250.833 C -1723.133 250.533 -1722.633 245.433 -1722.433 239.433 L -1722.033 228.533 L -1727.833 227.133 C -1731.633 226.333 -1739.633 225.833 -1750.233 225.933 C -1763.733 226.033 -1768.133 226.433 -1774.533 228.133 C -1802.333 235.733 -1816.133 253.333 -1810.833 274.333 C -1806.933 289.533 -1797.833 296.933 -1769.733 307.833 C -1763.533 310.233 -1757.033 313.033 -1755.533 313.933 C -1742.033 322.333 -1740.533 334.333 -1752.233 340.433 C -1753.633 341.133 -1759.433 341.933 -1765.733 342.133 C -1777.733 342.633 -1787.333 341.133 -1800.433 336.833 C -1804.433 335.533 -1807.733 334.533 -1807.833 334.633 C -1807.933 334.733 -1808.333 340.533 -1808.733 347.533 L -1809.533 360.133 L -1803.133 362.133 C -1799.633 363.233 -1793.533 364.633 -1789.733 365.233 C -1785.833 365.833 -1781.633 366.533 -1780.233 366.733 C -1775.133 367.633 -1756.133 366.133 -1748.333 364.333 Z " fill="rgb(253,254,254)"/><path d=" M -2362.033 324.633 C -2361.633 286.133 -2361.533 283.533 -2359.533 278.333 C -2354.433 264.733 -2347.733 256.233 -2338.633 251.733 C -2327.633 246.333 -2313.333 249.133 -2309.033 257.433 C -2305.733 263.833 -2305.233 271.933 -2305.233 319.133 L -2305.233 365.333 L -2290.733 365.333 L -2276.233 365.333 L -2276.233 312.533 C -2276.233 263.433 -2276.333 259.133 -2278.133 252.033 C -2280.333 243.633 -2281.933 240.633 -2287.133 235.033 C -2293.833 227.833 -2303.933 224.333 -2317.533 224.333 C -2336.233 224.433 -2351.433 232.333 -2361.633 247.433 L -2365.133 252.633 L -2364.533 240.033 L -2363.933 227.333 L -2378.033 227.333 L -2392.233 227.333 L -2392.233 296.333 L -2392.233 365.333 L -2377.333 365.333 L -2362.333 365.333 L -2362.033 324.633 Z " fill="rgb(253,254,254)"/><path d=" M -2074.233 331.133 C -2074.233 294.933 -2073.433 285.433 -2069.433 274.033 C -2066.433 265.733 -2061.633 259.633 -2055.233 255.933 C -2050.433 253.233 -2048.833 252.933 -2041.633 252.833 L -2033.533 252.833 L -2032.833 242.433 C -2032.533 236.733 -2032.233 230.233 -2032.233 228.033 L -2032.233 224.033 L -2040.433 224.533 C -2049.833 225.033 -2056.433 227.733 -2063.433 234.133 C -2068.033 238.333 -2073.733 246.533 -2076.433 253.333 L -2078.333 257.833 L -2077.733 253.833 C -2077.433 251.633 -2076.933 244.733 -2076.533 238.633 L -2075.933 227.333 L -2090.133 227.333 L -2104.233 227.333 L -2104.233 296.333 L -2104.233 365.333 L -2089.233 365.333 L -2074.233 365.333 L -2074.233 331.133 Z " fill="rgb(253,254,254)"/><path d=" M -1840.233 296.333 L -1840.233 227.333 L -1854.733 227.333 L -1869.233 227.333 L -1869.233 296.333 L -1869.233 365.333 L -1854.733 365.333 L -1840.233 365.333 L -1840.233 296.333 Z " fill="rgb(253,254,254)"/><path d=" M -2653.633 237.633 C -2639.733 226.233 -2631.833 218.633 -2621.233 206.633 C -2599.933 182.333 -2587.333 159.833 -2582.733 137.933 C -2580.433 126.733 -2580.633 109.933 -2583.233 99.833 C -2585.733 89.833 -2592.533 75.933 -2599.433 66.833 L -2604.667 58.333 L -2771.667 58.333 L -2758.733 62.533 C -2745.933 67.533 -2719.433 81.433 -2707.133 89.533 C -2670.233 113.833 -2650.033 140.033 -2644.133 171.133 C -2642.533 179.833 -2643.533 197.833 -2646.233 207.833 C -2648.733 217.233 -2653.933 229.533 -2658.733 237.533 C -2660.633 240.733 -2661.833 243.333 -2661.433 243.333 C -2661.033 243.333 -2657.533 240.733 -2653.633 237.633 Z " fill="rgb(0,150,195)"/><path d=" M -2493.433 176.233 L -2490.233 175.133 L -2490.233 165.733 L -2490.233 156.333 L -2494.233 156.333 L -2498.133 156.333 L -2498.433 163.133 L -2498.733 169.833 L -2503.133 170.133 C -2512.433 170.833 -2517.233 166.333 -2517.233 157.033 C -2517.233 146.033 -2510.533 141.033 -2498.533 143.333 C -2495.433 143.833 -2492.733 144.233 -2492.533 144.033 C -2492.433 143.833 -2491.933 142.333 -2491.633 140.533 C -2491.033 137.633 -2491.233 137.433 -2494.833 136.633 C -2506.533 134.233 -2516.433 136.933 -2522.333 144.333 C -2529.433 153.133 -2527.133 169.433 -2518.133 174.733 C -2512.233 178.233 -2501.933 178.833 -2493.433 176.233 Z " fill="rgb(2,151,194)"/><path d=" M -2407.333 175.533 C -2405.033 174.333 -2402.933 172.133 -2401.433 169.333 C -2399.433 165.333 -2399.233 163.433 -2399.233 150.633 L -2399.233 136.333 L -2403.633 136.333 L -2408.033 136.333 L -2408.133 150.933 C -2408.333 167.033 -2408.833 168.733 -2414.133 170.433 C -2418.333 171.833 -2424.733 170.233 -2426.233 167.333 C -2426.733 166.333 -2427.233 158.933 -2427.233 150.933 L -2427.233 136.333 L -2431.733 136.333 L -2436.233 136.333 L -2436.233 150.233 C -2436.233 167.033 -2435.733 169.633 -2432.033 173.333 C -2427.033 178.433 -2415.033 179.433 -2407.333 175.533 Z " fill="rgb(2,151,194)"/><path d=" M -2659.366 452.884 L -2767.667 452 L -2776 435 L -2783 418 L -2783 319.833 L -2779.933 329.833 C -2776.533 342.233 -2766.433 362.733 -2757.933 374.533 C -2736.633 404.133 -2705.033 431.433 -2672.733 448.233 Q -2668.433 450.433 -2659.366 452.884 L -2659.366 452.884 Z " fill="rgb(212,216,35)"/><path d=" M -2656 452.884 L -2503.133 454 L -2517.633 445.633 C -2574.433 410.033 -2633.133 361.233 -2662.333 325.233 C -2687.533 294.033 -2699.633 268.533 -2700.933 243.733 C -2702.133 219.833 -2693.733 200.733 -2673.833 182.733 C -2669.633 179.033 -2666.433 175.733 -2666.633 175.533 C -2667.133 175.033 -2684.433 183.733 -2691.733 188.133 C -2723.533 207.333 -2746.433 233.433 -2755.633 260.733 C -2760.433 274.933 -2761.933 295.833 -2759.333 311.333 C -2755.133 335.233 -2741.033 363.433 -2719.633 390.333 C -2711.033 401.133 -2679.833 432.433 -2666.933 443.133 L -2656 452.884 Z " fill="rgb(212,216,35)"/><path d=" M -1923.833 365.833 C -1919.533 365.133 -1911.933 363.233 -1907.133 361.733 L -1898.233 359.033 L -1898.233 326.133 L -1898.233 293.333 L -1912.733 293.333 L -1927.233 293.333 L -1927.233 316.733 L -1927.233 340.233 L -1932.933 341.333 C -1936.033 342.033 -1943.533 342.333 -1949.733 342.233 C -1960.233 341.833 -1961.233 341.633 -1968.433 338.033 C -1983.733 330.533 -1991.233 317.033 -1991.233 296.933 C -1991.233 281.733 -1986.833 269.733 -1978.133 261.233 C -1965.233 248.633 -1944.433 245.333 -1919.333 252.033 C -1904.933 255.833 -1906.333 256.533 -1903.633 243.433 C -1902.333 237.233 -1901.433 231.733 -1901.733 231.333 C -1902.733 229.733 -1919.933 226.333 -1932.533 225.233 C -1980.633 220.733 -2014.633 244.533 -2021.333 287.433 C -2023.733 302.533 -2020.633 322.133 -2013.933 334.833 C -2009.733 342.733 -1999.933 352.933 -1992.133 357.633 C -1985.133 361.733 -1973.133 365.833 -1963.733 367.333 C -1956.033 368.533 -1934.033 367.733 -1923.833 365.833 Z " fill="rgb(2,151,194)"/><path d=" M -1748.333 364.333 C -1726.333 359.033 -1714.433 346.633 -1713.433 327.833 C -1712.933 317.033 -1715.533 310.033 -1722.933 302.133 C -1729.033 295.733 -1735.833 291.933 -1754.233 284.333 C -1774.033 276.233 -1779.433 272.233 -1780.833 264.633 C -1782.233 256.933 -1775.933 250.833 -1764.133 248.333 C -1756.633 246.733 -1735.633 247.533 -1728.733 249.733 C -1726.033 250.533 -1723.633 251.033 -1723.333 250.833 C -1723.133 250.533 -1722.633 245.433 -1722.433 239.433 L -1722.033 228.533 L -1727.833 227.133 C -1731.633 226.333 -1739.633 225.833 -1750.233 225.933 C -1763.733 226.033 -1768.133 226.433 -1774.533 228.133 C -1802.333 235.733 -1816.133 253.333 -1810.833 274.333 C -1806.933 289.533 -1797.833 296.933 -1769.733 307.833 C -1763.533 310.233 -1757.033 313.033 -1755.533 313.933 C -1742.033 322.333 -1740.533 334.333 -1752.233 340.433 C -1753.633 341.133 -1759.433 341.933 -1765.733 342.133 C -1777.733 342.633 -1787.333 341.133 -1800.433 336.833 C -1804.433 335.533 -1807.733 334.533 -1807.833 334.633 C -1807.933 334.733 -1808.333 340.533 -1808.733 347.533 L -1809.533 360.133 L -1803.133 362.133 C -1799.633 363.233 -1793.533 364.633 -1789.733 365.233 C -1785.833 365.833 -1781.633 366.533 -1780.233 366.733 C -1775.133 367.633 -1756.133 366.133 -1748.333 364.333 Z " fill="rgb(2,151,194)"/><path d=" M -2362.033 324.633 C -2361.633 286.133 -2361.533 283.533 -2359.533 278.333 C -2354.433 264.733 -2347.733 256.233 -2338.633 251.733 C -2327.633 246.333 -2313.333 249.133 -2309.033 257.433 C -2305.733 263.833 -2305.233 271.933 -2305.233 319.133 L -2305.233 365.333 L -2290.733 365.333 L -2276.233 365.333 L -2276.233 312.533 C -2276.233 263.433 -2276.333 259.133 -2278.133 252.033 C -2280.333 243.633 -2281.933 240.633 -2287.133 235.033 C -2293.833 227.833 -2303.933 224.333 -2317.533 224.333 C -2336.233 224.433 -2351.433 232.333 -2361.633 247.433 L -2365.133 252.633 L -2364.533 240.033 L -2363.933 227.333 L -2378.033 227.333 L -2392.233 227.333 L -2392.233 296.333 L -2392.233 365.333 L -2377.333 365.333 L -2362.333 365.333 L -2362.033 324.633 Z " fill="rgb(2,151,194)"/><path d=" M -2074.233 331.133 C -2074.233 294.933 -2073.433 285.433 -2069.433 274.033 C -2066.433 265.733 -2061.633 259.633 -2055.233 255.933 C -2050.433 253.233 -2048.833 252.933 -2041.633 252.833 L -2033.533 252.833 L -2032.833 242.433 C -2032.533 236.733 -2032.233 230.233 -2032.233 228.033 L -2032.233 224.033 L -2040.433 224.533 C -2049.833 225.033 -2056.433 227.733 -2063.433 234.133 C -2068.033 238.333 -2073.733 246.533 -2076.433 253.333 L -2078.333 257.833 L -2077.733 253.833 C -2077.433 251.633 -2076.933 244.733 -2076.533 238.633 L -2075.933 227.333 L -2090.133 227.333 L -2104.233 227.333 L -2104.233 296.333 L -2104.233 365.333 L -2089.233 365.333 L -2074.233 365.333 L -2074.233 331.133 Z " fill="rgb(2,151,194)"/><path d=" M -1840.233 296.333 L -1840.233 227.333 L -1854.733 227.333 L -1869.233 227.333 L -1869.233 296.333 L -1869.233 365.333 L -1854.733 365.333 L -1840.233 365.333 L -1840.233 296.333 Z " fill="rgb(2,151,194)"/><path d=" M -2493.433 176.233 L -2490.233 175.133 L -2490.233 165.733 L -2490.233 156.333 L -2494.233 156.333 L -2498.133 156.333 L -2498.433 163.133 L -2498.733 169.833 L -2503.133 170.133 C -2512.433 170.833 -2517.233 166.333 -2517.233 157.033 C -2517.233 146.033 -2510.533 141.033 -2498.533 143.333 C -2495.433 143.833 -2492.733 144.233 -2492.533 144.033 C -2492.433 143.833 -2491.933 142.333 -2491.633 140.533 C -2491.033 137.633 -2491.233 137.433 -2494.833 136.633 C -2506.533 134.233 -2516.433 136.933 -2522.333 144.333 C -2529.433 153.133 -2527.133 169.433 -2518.133 174.733 C -2512.233 178.233 -2501.933 178.833 -2493.433 176.233 Z " fill="rgb(2,151,194)"/><path d=" M -2407.333 175.533 C -2405.033 174.333 -2402.933 172.133 -2401.433 169.333 C -2399.433 165.333 -2399.233 163.433 -2399.233 150.633 L -2399.233 136.333 L -2403.633 136.333 L -2408.033 136.333 L -2408.133 150.933 C -2408.333 167.033 -2408.833 168.733 -2414.133 170.433 C -2418.333 171.833 -2424.733 170.233 -2426.233 167.333 C -2426.733 166.333 -2427.233 158.933 -2427.233 150.933 L -2427.233 136.333 L -2431.733 136.333 L -2436.233 136.333 L -2436.233 150.233 C -2436.233 167.033 -2435.733 169.633 -2432.033 173.333 C -2427.033 178.433 -2415.033 179.433 -2407.333 175.533 Z " fill="rgb(2,151,194)"/><path d=" M -2460.233 367.233 C -2444.433 365.833 -2424.233 360.733 -2424.233 358.133 C -2424.233 354.633 -2426.633 337.733 -2427.133 337.033 C -2427.533 336.633 -2430.933 337.433 -2434.833 338.733 C -2449.433 343.833 -2467.733 345.733 -2479.433 343.233 C -2496.733 339.533 -2506.333 327.033 -2507.833 306.133 L -2508.533 297.333 L -2464.133 297.133 L -2419.733 296.833 L -2419.433 285.933 C -2418.433 247.533 -2439.433 224.333 -2475.233 224.333 C -2493.233 224.333 -2506.233 229.433 -2517.833 240.833 C -2526.133 249.033 -2531.033 257.333 -2534.833 269.833 C -2537.533 278.333 -2537.633 279.933 -2537.633 297.833 C -2537.733 314.633 -2537.433 317.733 -2535.433 324.833 C -2530.433 341.933 -2520.533 354.633 -2507.033 360.733 C -2496.733 365.433 -2491.933 366.533 -2473.233 368.233 C -2472.433 368.233 -2466.533 367.833 -2460.233 367.233 Z  M -2506.833 273.133 C -2505.933 267.233 -2501.733 258.833 -2497.433 254.633 C -2495.533 252.633 -2491.433 249.933 -2488.433 248.533 C -2483.733 246.433 -2482.033 246.133 -2474.833 246.533 C -2468.133 246.833 -2465.633 247.433 -2461.933 249.633 C -2454.133 254.233 -2449.833 261.733 -2449.033 271.933 L -2448.733 276.833 L -2478.133 277.133 L -2507.533 277.333 L -2506.833 273.133 Z " fill-rule="evenodd" fill="rgb(2,151,194)"/><path d=" M -2173.633 367.333 C -2156.133 365.833 -2136.233 360.933 -2136.233 357.933 C -2136.233 353.733 -2138.733 336.333 -2139.333 336.333 C -2139.833 336.333 -2142.433 337.233 -2145.133 338.333 C -2161.133 344.633 -2185.433 346.033 -2197.633 341.333 C -2205.333 338.333 -2211.533 332.633 -2215.233 324.833 C -2218.233 318.533 -2220.633 306.933 -2220.033 301.133 L -2219.733 297.833 L -2175.733 297.333 L -2131.733 296.833 L -2131.433 285.633 C -2130.533 247.433 -2151.433 224.333 -2187.233 224.333 C -2205.533 224.333 -2218.333 229.433 -2230.233 241.333 C -2238.733 249.833 -2243.733 258.633 -2247.433 271.933 C -2250.433 282.833 -2250.733 312.033 -2247.833 322.833 C -2240.733 349.933 -2223.333 364.433 -2194.233 367.333 C -2190.133 367.733 -2186.733 368.133 -2186.633 368.233 C -2186.533 368.233 -2180.733 367.833 -2173.633 367.333 Z  M -2218.733 273.133 C -2217.633 266.633 -2214.733 260.833 -2210.033 255.733 C -2203.333 248.433 -2199.433 246.833 -2188.133 246.833 C -2179.233 246.833 -2178.233 247.033 -2173.633 249.833 C -2167.133 253.833 -2162.833 260.433 -2161.233 268.733 C -2160.633 272.233 -2160.333 275.633 -2160.733 276.233 C -2161.133 276.933 -2170.933 277.333 -2190.333 277.333 L -2219.433 277.333 L -2218.733 273.133 Z " fill-rule="evenodd" fill="rgb(2,151,194)"/><path d=" M -1646.933 366.833 C -1633.733 364.033 -1622.833 357.033 -1616.133 346.933 L -1612.133 340.933 L -1612.333 352.933 L -1612.433 364.833 L -1598.633 365.133 L -1584.733 365.433 L -1585.033 315.133 C -1585.333 263.733 -1585.833 255.333 -1589.333 247.433 C -1596.033 232.133 -1612.533 224.433 -1638.633 224.333 C -1651.133 224.333 -1667.233 226.733 -1678.133 230.233 L -1686.733 232.933 L -1686.633 238.933 C -1686.633 242.133 -1686.233 247.833 -1685.833 251.533 L -1685.133 258.133 L -1678.733 255.233 C -1663.133 248.233 -1640.633 245.533 -1630.133 249.633 C -1621.533 252.933 -1615.233 262.433 -1615.233 272.333 L -1615.233 276.333 L -1619.633 276.333 C -1622.133 276.333 -1629.233 277.033 -1635.533 277.833 C -1672.433 282.633 -1694.133 297.933 -1698.333 322.133 C -1701.833 341.633 -1687.533 363.633 -1669.133 367.233 C -1662.333 368.633 -1654.433 368.433 -1646.933 366.833 Z  M -1654.433 344.333 C -1662.433 343.333 -1667.533 337.733 -1669.333 327.933 C -1671.633 315.333 -1663.633 305.233 -1647.633 300.433 C -1635.733 296.933 -1615.333 295.133 -1615.133 297.633 C -1613.933 314.533 -1624.633 335.533 -1637.533 341.633 C -1643.533 344.533 -1647.833 345.233 -1654.433 344.333 Z " fill-rule="evenodd" fill="rgb(2,151,194)"/><path d=" M -2324.233 177.233 C -2311.533 174.533 -2304.433 159.233 -2310.133 146.833 C -2315.933 134.033 -2333.133 131.633 -2343.633 142.033 C -2347.733 146.033 -2349.233 150.333 -2349.233 157.533 C -2349.133 168.133 -2344.833 174.633 -2336.233 177.133 C -2331.533 178.533 -2330.133 178.533 -2324.233 177.233 Z  M -2335.833 168.533 C -2339.633 165.533 -2340.633 162.133 -2340.333 153.533 C -2340.233 151.133 -2339.233 149.133 -2336.833 146.733 C -2334.033 143.933 -2332.733 143.333 -2329.033 143.333 C -2323.833 143.333 -2320.533 145.433 -2318.633 149.933 C -2315.833 156.533 -2317.633 165.433 -2322.333 168.733 C -2325.433 170.833 -2333.133 170.833 -2335.833 168.533 Z " fill-rule="evenodd" fill="rgb(2,151,194)"/><path d=" M -2468.233 168.633 L -2468.233 159.933 L -2462.133 168.633 L -2456.133 177.333 L -2451.133 177.333 C -2445.433 177.333 -2445.233 177.933 -2452.933 167.733 C -2455.833 163.833 -2458.233 160.333 -2458.233 160.033 C -2458.233 159.633 -2456.533 158.533 -2454.433 157.433 C -2446.133 153.233 -2446.033 142.133 -2454.233 137.833 C -2456.233 136.833 -2460.233 136.333 -2467.233 136.333 L -2477.233 136.333 L -2477.233 156.133 C -2477.233 167.033 -2476.933 176.333 -2476.533 176.633 C -2476.233 177.033 -2474.133 177.333 -2472.033 177.333 L -2468.233 177.333 L -2468.233 168.633 Z  M -2465.933 154.533 C -2468.033 154.233 -2468.233 153.633 -2468.233 148.133 L -2468.233 142.033 L -2464.233 142.633 C -2461.933 142.933 -2459.533 143.733 -2458.733 144.333 C -2457.133 145.633 -2456.733 150.033 -2458.033 152.033 C -2459.033 153.633 -2463.233 155.033 -2465.933 154.533 Z " fill-rule="evenodd" fill="rgb(2,151,194)"/><path d=" M -2377.033 170.733 L -2376.733 164.133 L -2371.833 163.633 C -2361.733 162.833 -2356.233 157.633 -2356.233 149.033 C -2356.233 140.033 -2362.133 136.333 -2376.233 136.333 L -2385.233 136.333 L -2385.233 156.833 L -2385.233 177.333 L -2381.233 177.333 L -2377.333 177.333 L -2377.033 170.733 Z  M -2377.233 150.333 C -2377.233 144.433 -2376.933 143.333 -2375.433 143.133 C -2371.833 142.833 -2368.633 143.533 -2366.933 145.033 C -2365.233 146.633 -2364.633 151.933 -2366.033 153.933 C -2367.233 155.833 -2370.933 157.333 -2374.133 157.333 L -2377.233 157.333 L -2377.233 150.333 Z " fill-rule="evenodd" fill="rgb(2,151,194)"/></g></svg>