<?xml version="1.0" encoding="UTF-8" standalone="no"?><!-- Generator: Gravit.io --><svg xmlns="http://www.w3.org/2000/svg" xmlns:xlink="http://www.w3.org/1999/xlink" style="isolation:isolate" viewBox="0 0 503.2 79.012" width="503.2pt" height="79.012pt"><defs><clipPath id="_clipPath_s8Hr72VgbNyvHyd3xfsg3hH7NqBVawUs"><rect x="0" y="0" width="503.2" height="79.012"/></clipPath></defs><g clip-path="url(#_clipPath_s8Hr72VgbNyvHyd3xfsg3hH7NqBVawUs)"><g><g><path d=" M 154 76.2 C 151.8 75 149.6 72.7 148.3 70 C 146.1 65.8 146 64.4 146 44.3 L 146 23 L 154 23 L 162 23 L 162 42 C 162 59.7 162.1 61.1 164 63 C 166.4 65.4 170 65.6 173.9 63.6 C 178.6 61.1 179.4 58 179.8 39.8 L 180.2 23 L 188.1 23 L 196 23 L 196 50 L 196 77 L 188 77 L 180 77 L 180 73.8 L 180 70.6 L 177.3 73.2 C 175.7 74.6 173.5 76.3 172.3 76.9 C 168.8 78.7 158 78.3 154 76.2 Z " fill="rgb(39,37,37)"/><path d=" M 256.5 75.6 C 250.5 72.8 247.8 70 245 63.8 C 238.7 49.5 243.1 31.1 254.6 24.4 C 258.4 22.1 260.8 21.5 267.5 21.2 C 285.4 20.3 295.6 28.6 297.5 45.6 C 299 58.7 293.8 70.2 284.1 75.2 C 279.5 77.6 277.6 78 270.1 78 C 263.2 78 260.5 77.5 256.5 75.6 Z  M 277.1 62.4 C 280.4 59.2 282.5 51.7 281.5 46.2 C 280.1 38 274.1 32.5 267.8 33.7 C 261.3 34.9 256.8 44.7 258.5 53.7 C 260.6 64.8 270 69.2 277.1 62.4 Z " fill="rgb(39,37,37)"/><path d=" M 329 77.3 Q 327.211 76.664 321 73 L 321 77 L 306 77 L 306 38.5 L 306 0 L 314 0 L 322 0 L 322 13.7 C 322 26.7 322.1 27.2 323.8 25.7 C 329.1 20.9 340.3 19.6 347.6 22.9 C 356 26.7 360.4 35.5 360.4 48.5 C 360.3 68.1 353.5 79.1 338 79 C 334.151 79.126 332.719 78.25 329 77.3 Z  M 337.9 64.5 C 342.4 62.2 344.3 57 343.8 48.4 C 343.4 40.4 341.5 36.6 336.6 34.2 C 334.266 33.023 333.149 33.047 330.2 34.2 C 320.9 37.6 319 56.6 327.1 63.4 C 330.6 66.3 333.8 66.7 337.9 64.5 Z " fill="rgb(39,37,37)"/><path d=" M 464.1 75.4 C 454.8 70.7 450.2 60.4 451.3 46.4 C 452 37.4 454.5 31.6 459.8 26.8 C 464.7 22.4 469.2 21 478.6 21 C 488.2 21 495.3 24.5 499.4 31.3 Q 503.139 35.859 503.2 54 L 485 54 L 466.8 54 L 467.5 56.8 C 469.8 66.3 479.9 69.1 486.3 61.9 L 489.1 58.8 L 495.6 61.6 Q 499.4 63.2 502 65 Q 493.7 75.7 489.5 76.9 C 487.3 77.5 481.9 78 477.4 78 C 470.7 78 468.5 77.6 464.1 75.4 Z  M 478.6 33 Q 469.16 33.012 467.4 44 L 487.9 44 Q 487.09 33.047 478.6 33 Z " fill="rgb(39,37,37)"/><path d=" M 80 38.5 L 80 0 L 107.5 0 L 135 0 L 135 7 L 135 14 L 116 14 L 97 14 L 97 22 L 97 30 L 115 30 L 133 30 L 133 37.5 L 133 45 L 115 45 L 97 45 L 97 53.5 L 97 62 L 117 62 L 137 62 L 137 69.5 L 137 77 L 108.5 77 L 80 77 L 80 38.5 Z " fill="rgb(39,37,37)"/><path d=" M 207 50 L 207 23 L 214.5 23 L 222 23 L 222 29 Q 230.3 22 235.9 22 L 241.3 22 L 240.6 27.2 Q 240.3 30.1 240 34.3 Q 233.438 34.813 228.2 37.6 C 223.7 40.7 223 43.8 223 61 L 223 77 L 215 77 L 207 77 L 207 50 Z " fill="rgb(39,37,37)"/><path d=" M 370 49.5 L 370 22 L 378 22 L 386 22 L 386 49.5 L 386 77 L 378 77 L 370 77 L 370 49.5 Z " fill="rgb(39,37,37)"/><path d=" M 397 38.5 L 397 0 L 405 0 L 413 0 L 413.2 19.3 L 413.5 38.5 L 421.6 30.8 L 429.6 23 L 439.6 23 L 449.5 23 L 440.3 32.3 L 431.1 41.5 L 441 58.9 C 446.5 68.4 451 76.4 451 76.6 C 451 76.8 446.8 77 441.8 77 L 432.5 77 L 428.5 69.3 C 426.3 65.2 423.2 59.5 421.7 56.8 L 418.8 51.8 L 413 57 L 413 77 L 405 77 L 397 77 L 397 38.5 Z " fill="rgb(39,37,37)"/><path d=" M 370 7 L 370 0 L 378 0 L 386 0 L 386 7 L 386 14 L 378 14 L 370 14 L 370 7 Z " fill="rgb(39,37,37)"/><path d=" M 0 69 L 0 60 L 32 60 L 64 60 L 64 69 L 64 78 L 32 78 L 0 78 L 0 69 Z " fill="rgb(217,123,49)"/><path d=" M 8 68.989 L 8 59.978 L 14 59.978 L 20 59.978 L 20 68.989 L 20 78 L 14 78 L 8 78 L 8 68.989 Z " fill="rgb(255,253,253)"/><path d=" M 0 39 L 0 30 L 32 30 L 64 30 L 64 39 L 64 48 L 32 48 L 0 48 L 0 39 Z " fill="rgb(217,123,49)"/><path d=" M 8 39.049 L 8 30.037 L 14 30.037 L 20 30.037 L 20 39.049 L 20 48.06 L 14 48.06 L 8 48.06 L 8 39.049 Z " fill="rgb(255,253,253)"/><path d=" M 0 9 L 0 0 L 32 0 L 64 0 L 64 9 L 64 18 L 32 18 L 0 18 L 0 9 Z " fill="rgb(217,123,49)"/><path d=" M 8 9.011 L 8 0 L 14 0 L 20 0 L 20 9.011 L 20 18.022 L 14 18.022 L 8 18.022 L 8 9.011 Z " fill="rgb(255,253,253)"/></g></g></g></svg>