<?xml version="1.0" encoding="UTF-8" standalone="no"?><!-- Generator: Gravit.io --><svg xmlns="http://www.w3.org/2000/svg" xmlns:xlink="http://www.w3.org/1999/xlink" style="isolation:isolate" viewBox="271.586 245.108 142.111 50" width="142.111pt" height="50pt"><g><path d=" M 379.044 259.944 C 381.723 259.944 384.317 261.812 384.529 266.674 C 384.523 266.872 384.358 267.032 384.154 267.032 L 372.879 267.032 C 373.355 262.649 375.533 259.944 379.044 259.944 Z  M 390.131 275.406 C 389.794 275.227 389.216 274.913 388.999 274.798 C 388.652 274.611 388.432 274.855 388.336 274.982 C 385.971 278.262 383.664 279.348 380.746 279.348 C 376.103 279.348 372.787 275.473 372.787 269.456 L 389.656 269.456 C 389.853 269.456 390.013 269.303 390.023 269.113 C 389.718 261.693 385.627 257.893 379.231 257.893 C 372.879 257.893 367.575 262.739 367.575 270.482 C 367.575 277.945 371.695 283.071 378.897 283.074 C 384.007 283.074 387.247 281.107 390.315 275.943 C 390.381 275.834 390.468 275.591 390.131 275.406 Z " fill="rgb(0,0,0)"/><path d=" M 352.609 281.022 C 349.39 281.022 347.686 279.022 347.686 276.59 L 347.686 264.14 C 349.39 262.367 351.098 261.341 353.274 261.341 C 356.972 261.341 359.578 264.981 359.578 271.135 C 359.578 276.922 356.878 281.022 352.609 281.022 Z  M 355.405 257.893 C 352.706 257.893 350.764 259.055 348.916 260.5 C 348.298 260.966 348.109 261.249 347.917 261.249 C 347.68 261.249 347.68 252.958 347.68 251.158 C 347.68 251.013 347.552 250.825 347.317 250.85 C 345.616 251.025 338.383 251.885 334.986 254.292 C 333.643 255.247 332.267 256.595 331.609 258.212 C 330.726 257.994 329.764 257.863 328.742 257.863 C 324.438 257.863 320.681 260.453 320.681 264.981 C 320.681 273.377 334.617 270.671 334.617 276.875 C 334.617 279.254 332.815 281.022 329.874 281.022 C 326.257 281.022 323.457 278.258 322.808 274.384 C 322.761 274.232 322.622 274.123 322.451 274.123 L 320.766 274.123 C 320.563 274.123 320.398 274.283 320.398 274.487 L 320.398 282.15 C 320.398 282.355 320.563 282.516 320.766 282.516 L 321.753 282.516 C 322.511 282.516 322.645 281.956 323.474 281.954 C 324.757 281.956 326.844 283.074 329.874 283.074 C 335.087 283.074 338.596 279.906 338.596 275.38 C 338.596 266.141 324.665 269.175 324.665 263.441 C 324.665 261.341 326.369 259.944 328.552 259.944 C 329.807 259.944 331.183 260.305 331.884 260.977 C 332.648 261.69 332.974 263.027 333.672 263.863 C 334.377 264.708 335.63 265.193 337.026 264.522 C 338.867 263.633 338.815 260.586 336.434 259.87 C 335.045 259.454 334.367 258.969 334.367 258.007 C 334.367 256.297 337.699 253.505 341.815 253.505 C 342.906 253.505 342.847 254.579 342.847 254.579 L 342.847 289.327 C 342.847 291.807 341.907 292.852 339.619 293.033 C 339.413 293.033 339.249 293.202 339.249 293.403 L 339.249 294.745 C 339.249 294.948 339.413 295.108 339.62 295.108 L 352.146 295.108 C 352.349 295.108 352.517 294.948 352.517 294.748 L 352.517 293.403 C 352.517 293.228 352.401 293.091 352.238 293.049 C 348.671 292.909 347.686 291.872 347.686 289.327 L 347.686 281.583 C 349.626 282.612 351.002 283.074 353.084 283.074 C 359.625 283.074 364.605 277.715 364.605 269.692 C 364.605 261.808 361.048 257.893 355.405 257.893 Z " fill="rgb(0,0,0)"/><path d=" M 316.98 280.457 C 315.099 280.396 314.078 279.738 314.078 276.732 L 314.078 264.42 C 314.078 260.502 311.565 257.893 307.071 257.893 C 304.368 257.893 302.323 259.151 300.385 260.926 C 299.623 261.622 299.482 261.809 299.342 261.809 C 299.246 261.809 299.2 261.809 299.2 261.668 L 299.2 257.893 L 291.607 259.22 L 291.488 259.244 C 291.345 259.294 291.238 259.433 291.238 259.588 L 291.238 260.823 C 291.238 261.026 291.4 261.186 291.607 261.19 L 291.607 261.204 C 293.607 261.524 294.361 262.697 294.361 265.069 L 294.361 276.732 C 294.361 279.738 293.342 280.396 291.464 280.457 C 291.283 280.483 291.141 280.635 291.141 280.819 L 291.144 282.151 C 291.144 282.355 291.307 282.516 291.51 282.516 L 302.05 282.516 C 302.254 282.516 302.421 282.355 302.421 282.151 L 302.421 280.819 C 302.421 280.635 302.281 280.483 302.099 280.457 C 300.217 280.396 299.2 279.738 299.2 276.732 L 299.2 265.069 C 300.479 263.3 302.612 261.34 305.266 261.34 C 307.776 261.34 309.243 263.022 309.243 266.007 L 309.243 276.732 C 309.243 279.738 308.226 280.396 306.347 280.457 C 306.16 280.483 306.027 280.635 306.027 280.819 L 306.021 282.151 C 306.021 282.355 306.192 282.516 306.396 282.516 L 316.934 282.516 C 317.138 282.516 317.303 282.355 317.303 282.151 L 317.303 280.819 C 317.303 280.635 317.161 280.483 316.98 280.457 Z " fill="rgb(0,0,0)"/><path d=" M 287.706 245.108 L 271.954 245.108 C 271.752 245.108 271.586 245.274 271.586 245.476 L 271.586 246.807 C 271.586 247.012 271.752 247.173 271.954 247.173 C 276.096 247.319 277.085 248.356 277.085 250.892 L 277.085 276.732 C 277.085 279.271 276.096 280.311 271.954 280.454 C 271.752 280.454 271.586 280.618 271.586 280.819 L 271.586 282.151 C 271.586 282.355 271.752 282.516 271.952 282.516 L 287.706 282.516 C 287.912 282.516 288.079 282.355 288.079 282.151 L 288.079 280.819 C 288.079 280.618 287.912 280.454 287.706 280.454 C 283.563 280.311 282.582 279.271 282.577 276.732 L 282.582 250.892 C 282.582 248.356 283.563 247.319 287.706 247.173 C 287.912 247.173 288.079 247.012 288.079 246.807 L 288.079 245.476 C 288.079 245.274 287.912 245.108 287.706 245.108 Z " fill="rgb(0,0,0)"/><path d=" M 413.539 261.884 C 412.988 260.102 411.374 257.893 408.483 257.893 C 405.688 257.893 403.65 259.521 402.271 261.622 C 400.949 263.626 401.091 263.859 400.752 263.859 C 400.474 263.859 400.425 263.674 400.425 263.349 L 400.425 258.301 C 400.425 258.102 400.259 257.937 400.051 257.937 L 392.463 258.882 C 392.302 258.917 392.181 259.064 392.181 259.234 L 392.181 260.457 C 392.181 260.631 392.306 260.776 392.468 260.812 C 392.488 260.812 392.507 260.814 392.523 260.814 C 392.531 260.819 392.542 260.823 392.548 260.823 C 395.235 261.132 396.065 261.95 396.065 264.096 L 396.065 276.732 C 396.065 279.782 395.017 280.417 392.672 280.459 C 392.499 280.494 392.368 280.643 392.368 280.819 L 392.368 282.151 C 392.368 282.355 392.533 282.516 392.737 282.516 L 405.363 282.516 C 405.564 282.516 405.734 282.355 405.734 282.151 L 405.734 280.819 C 405.734 280.646 405.606 280.499 405.438 280.462 C 401.883 280.424 400.901 279.641 400.901 276.732 L 400.901 270.064 C 400.901 264.98 403.931 261.34 406.066 261.34 C 407.158 261.34 408.205 262.12 408.331 263.705 C 408.462 264.915 409.652 265.936 410.983 265.936 C 411.246 265.936 411.498 265.897 411.739 265.826 C 412.932 265.411 413.518 264.45 413.671 263.282 C 413.729 262.849 413.694 262.382 413.539 261.884 Z " fill="rgb(0,0,0)"/></g></svg>